<svg id="Layer_1" data-name="Layer 1" xmlns="http://www.w3.org/2000/svg" viewBox="0 0 511.81 369.2">
    <path
        d="M1208.16,538.85l7.74,5.16v2c-5.17,9.15-11.25,17.51-20.13,23.53-15.45,10.46-35.15,10.69-48.76.44,3.52-.4,6.91,1.1,10.34.93,13.71-.68,25.62-5.82,36-14.8C1199.2,551.08,1202.9,544.31,1208.16,538.85Z"
        transform="translate(-704.1 -356.05)" fill="#039c60" />
    <path
        d="M704.1,544l7.74-5.16c2.19.92,2.86,3.16,4.08,4.88,9,12.76,20.54,21.86,35.94,25.72,7,1.76,14.07,1,21.13.54-15,11.33-37.29,9.69-53.13-3.76-6.68-5.68-11.43-12.76-15.76-20.22Z"
        transform="translate(-704.1 -356.05)" fill="#039c60" />
    <path
        d="M1014.85,634.22c-16.39-8.51-32.85-16.88-49.1-25.63-4.16-2.24-7.33-2.21-11.49,0-19.61,10.6-39.41,20.85-59.18,31.18-2.12,1.11-4.26,3-6.91,1.1s-1.8-4.59-1.34-7.24c3.84-22.46,7.51-44.94,11.53-67.36.66-3.67-.25-5.93-2.73-8.34q-24.24-23.46-48.3-47.11c-1.92-1.89-5-3.44-3.91-6.92s4.45-3.19,7.1-3.58c21.55-3.19,43.1-6.38,64.69-9.23,5.16-.68,8.2-2.68,10.5-7.5,9.51-20,19.46-39.76,29.25-59.6,1.1-2.22,1.93-4.86,5-4.85s3.94,2.65,5,4.87c9.88,20,19.9,39.92,29.49,60,2.16,4.53,5.07,6.33,9.78,7,17,2.24,33.92,4.75,50.87,7.2a6.8,6.8,0,0,1,1.78.78c0,2.34-1.92,3.41-3.3,4.76q-24.36,23.94-48.83,47.77c-2.25,2.18-3.33,4.47-2.8,7.5,1.78,10.25,3.63,20.49,5.37,30.74C1009.93,604.59,1012.37,619.41,1014.85,634.22Z"
        transform="translate(-704.1 -356.05)" fill="#f6c12d" />
    <path
        d="M1208.16,538.85c-5.26,5.46-9,12.23-14.79,17.26-10.4,9-22.31,14.12-36,14.8-3.43.17-6.82-1.33-10.34-.93l-4.86-3.36a222.36,222.36,0,0,1-17.09,45.85c21.72-6.44,38.93-.16,53.32,15.26l-7.83,6.11c-16,12.49-33.61,17.29-53.45,10.72-1.36-.45-2.55-.68-3.71.33l-.22-.32c.63-1.57-.55-1.42-1.46-1.53-2.33-3.49-3.94-3.28-6.51.27a173.88,173.88,0,0,1-24.48,26.76c-1.28,1.15-3,2-3.64,4.16,20.07,2.27,33.37,13.26,40.93,31.6-1.07,1.48-2.87,1.62-4.36,2.18-19.72,7.51-38.79,7.56-56.77-5-2.18-1.53-3.5-4.06-6.16-5-.94-3.94-2.72-3.85-6-1.92a190.17,190.17,0,0,1-42.48,18.33c-5.86,1.76-10,0-11.38-4.64s.94-8.15,6.93-10.1c60.23-19.61,102.15-58.75,123.6-118.4,16.11-44.84,14.37-89.85-3.38-134.14-.74-1.84-1.41-3.37-3.6-4.36-22-9.95-31.42-30.78-24.72-54,1.2-4.14,2.53-8.24,5-11.84,10.84,4.64,19.41,12.2,26.31,21.51,7.8,10.52,10.51,22.73,10,35.71l.07-.1c-.91.32-1.08,1.08-1.15,1.91,5.22,10.74,8.61,22.15,12,34.33,11.49-20.48,28.83-27.82,51-25.18-.65,13.28-4.58,25.59-12.88,35.91-7.5,9.34-17,16.38-29.41,18.07-1.36.46-4.06-1.52-3.71,2,1.35,13.54.82,27.08-.5,41.63C1166.61,525.13,1187.08,525.54,1208.16,538.85Z"
        transform="translate(-704.1 -356.05)" fill="#02b973" />
    <path
        d="M773,570c-7.06.49-14.08,1.22-21.13-.54-15.4-3.86-26.94-13-35.94-25.72-1.22-1.72-1.89-4-4.08-4.88,14.93-9.73,30.67-12.91,47.63-5.75,4.93,2.08,9.06,5.4,13.28,9.38,1.18-2.44.42-4.54.26-6.49a171.73,171.73,0,0,1,.07-33.32c.38-3.3-.76-4.15-3.72-3.53a17.62,17.62,0,0,1-7.68-1.85c-22.69-10-32.6-28.43-34.6-52.13,21.18-3.4,38.39,4.94,50.82,25,1.88-6.13,3.57-11.89,5.44-17.58a73.14,73.14,0,0,1,4.08-10.65,6.86,6.86,0,0,0-.43-7.66c-1-27.41,12.84-45.38,36.27-57.3,13.28,22.65,8,53.42-17.84,65.07-1.78.8-2.3,2.19-2.94,3.72C768.63,525.83,794.65,619.7,864.9,671a186,186,0,0,0,55.87,28.09c.8.24,1.58.52,2.37.8,5.09,1.82,7.26,5.41,6,9.87s-5.29,6.46-10.42,5a182.65,182.65,0,0,1-28-10.58,147.79,147.79,0,0,1-15.87-8.34c-3.63-2.34-4.69-1-5.6,2.2-.31.12-.7.16-.91.38-12.09,11.94-27,15.76-43.38,14.49a51.8,51.8,0,0,1-23-7c7.54-18.35,20.88-29.28,41.62-31.69-6.72-6.38-13.14-12-18.71-18.54-3.46-4-7.15-7.91-10.09-12.29-2.46-3.65-4.19-3.78-6.51-.26-.9.11-2.09,0-1.45,1.53l-.24.31c-1.58-1.39-3.1-.61-4.62.11-4.93,2.34-10.46,2.86-15.54,2.69-13-.42-25.19-4.33-35.46-12.6-2.94-2.37-7.29-3.78-8-8.39,14-15,30.87-20.33,51.84-14.2-7.28-15.14-13-29.85-16.7-45.32C775.64,567.06,774.9,569.57,773,570Z"
        transform="translate(-704.1 -356.05)" fill="#02b973" />
    <path
        d="M1014.85,634.22c-2.48-14.81-4.92-29.63-7.44-44.43-1.74-10.25-3.59-20.49-5.37-30.74-.53-3,.55-5.32,2.8-7.5q24.52-23.77,48.83-47.77c1.38-1.35,3.29-2.42,3.3-4.76,4.71-.56,9.24.91,13.85,1.38,2.4.25,5.15.63,6,3.66.73,2.76-1.27,4.28-2.93,5.9-16.09,15.7-32.11,31.47-48.35,47-3.23,3.09-4.4,6-3.6,10.47,4,22.2,7.72,44.46,11.59,66.68.44,2.53,1,4.94-1.4,6.83s-4.4.53-6.44-.63C1022.06,638.27,1018.1,636.87,1014.85,634.22Z"
        transform="translate(-704.1 -356.05)" fill="#edb902" />
    <path
        d="M727.08,445.16c2,23.7,11.91,42.16,34.6,52.13a17.62,17.62,0,0,0,7.68,1.85c-13.92,4.33-32-2.55-42-15.89-6.55-8.74-9.77-18.7-11-29.42-.76-6.63-.73-6.75,5.83-8.22A38,38,0,0,1,727.08,445.16Z"
        transform="translate(-704.1 -356.05)" fill="#039c60" />
    <path
        d="M1150.63,499.14c12.46-1.69,21.91-8.73,29.41-18.07,8.3-10.32,12.23-22.63,12.88-35.91,10.92.07,11.79.88,10,12.58-3,19.42-12.45,34.11-31.85,40.69C1164.43,500.68,1157.53,501.48,1150.63,499.14Z"
        transform="translate(-704.1 -356.05)" fill="#039c60" />
    <path
        d="M823.26,377C799.83,388.9,786,406.87,787,434.28c-9.78-15.26-6.94-36.14,7.06-51.24,5.26-5.68,11.61-9.8,18.5-13.33,4-2.06,6.38-1.42,8.25,2.44C821.59,373.78,823,375.06,823.26,377Z"
        transform="translate(-704.1 -356.05)" fill="#039c60" />
    <path
        d="M1131,434.2c.51-13-2.2-25.19-10-35.71-6.9-9.31-15.47-16.87-26.31-21.51a3.87,3.87,0,0,1,.19-1c4.54-8.85,5.41-9.24,14-4.45,15,8.36,25.27,20.41,27.48,38A36.25,36.25,0,0,1,1131,434.2Z"
        transform="translate(-704.1 -356.05)" fill="#039c60" />
    <path
        d="M1050.72,698c2.66.89,4,3.42,6.16,5,18,12.61,37,12.56,56.77,5,1.49-.56,3.29-.7,4.36-2.18.24.22.57.4.69.67,4.13,9.22,3.64,10.47-5.6,14.33-20.65,8.63-42.36,4.41-55.49-10.9C1054.59,706.42,1051.81,702.68,1050.72,698Z"
        transform="translate(-704.1 -356.05)" fill="#039c60" />
    <path
        d="M802,705.82a51.8,51.8,0,0,0,23,7c16.42,1.27,31.29-2.55,43.38-14.49.21-.22.6-.26.91-.38-4.38,13.91-19.76,25.71-35.13,26.88A60.29,60.29,0,0,1,802.82,719c-3.83-1.84-5.18-4-3.24-7.87C800.44,709.4,800.45,707.27,802,705.82Z"
        transform="translate(-704.1 -356.05)" fill="#039c60" />
    <path
        d="M743,626.69c.75,4.61,5.1,6,8,8.39,10.27,8.27,22.48,12.18,35.46,12.6,5.08.17,10.61-.35,15.54-2.69,1.52-.72,3-1.5,4.62-.11-11.77,12.4-30.71,15.91-47.83,8.75a62.45,62.45,0,0,1-20.28-14.17c-2.72-2.75-3.18-5.08-.38-7.84C739.76,630,740.71,627.72,743,626.69Z"
        transform="translate(-704.1 -356.05)" fill="#039c60" />
    <path
        d="M1113.39,644.89c1.16-1,2.35-.78,3.71-.33,19.84,6.57,37.42,1.77,53.45-10.72l7.83-6.11c8,9,7.75,7.57-.71,15.19-14.68,13.24-31.58,18.37-50.88,11.08A32,32,0,0,1,1113.39,644.89Z"
        transform="translate(-704.1 -356.05)" fill="#039c60" />
    <path
        d="M928.06,364.58c.06-4.4,2.1-7.33,6.4-8.34a7.09,7.09,0,0,1,8.68,5.59,201.2,201.2,0,0,1,3.4,22.63c.34,4-2.29,6.87-6.51,7.57a7.31,7.31,0,0,1-8.61-5.82C930.05,379.05,929.15,371.79,928.06,364.58Z"
        transform="translate(-704.1 -356.05)" fill="#f6c331" />
    <path
        d="M974.84,381.82c.8-5.24,1.69-12.32,3-19.31a7.44,7.44,0,0,1,8.66-6.33,7.55,7.55,0,0,1,6.38,8.68q-1.14,10.62-3.09,21.14a7.39,7.39,0,0,1-8.92,6C976.49,391.06,974.6,388.07,974.84,381.82Z"
        transform="translate(-704.1 -356.05)" fill="#f6c331" />
    <path
        d="M1037,387.27a8,8,0,0,1-1.48,4.7c-3.2,5.25-6.35,10.52-9.72,15.66-2.94,4.48-7.21,5.56-11.09,3.12s-4.68-6.84-2-11.34q4.84-8.12,10-16.08a7.27,7.27,0,0,1,9.09-3.19C1035.1,381.25,1036.75,383.8,1037,387.27Z"
        transform="translate(-704.1 -356.05)" fill="#f6c331" />
    <path
        d="M902.16,412a7.78,7.78,0,0,1-6.33-3.74c-3.57-5.6-7.15-11.18-10.49-16.92a7.54,7.54,0,0,1,2.49-10.44,7.43,7.43,0,0,1,10.49,2.26c3.77,5.65,7.42,11.41,10.7,17.36A7.68,7.68,0,0,1,902.16,412Z"
        transform="translate(-704.1 -356.05)" fill="#f6c331" />
    <path d="M1130,436c.07-.83.24-1.59,1.15-1.91Z" transform="translate(-704.1 -356.05)"
        fill="#039c60" />
    <path d="M806.85,644.57c-.64-1.57.55-1.42,1.45-1.53Z" transform="translate(-704.1 -356.05)"
        fill="#039c60" />
    <path d="M1111.71,643c.91.11,2.09,0,1.46,1.53Z" transform="translate(-704.1 -356.05)"
        fill="#039c60" />
</svg>