<svg id="Layer_1" data-name="Layer 1" xmlns="http://www.w3.org/2000/svg" viewBox="0 0 513.03 399.82"><path d="M610,206.59c-1.89,1.74-.94,3.81-1.09,5.72-1.86,23.54.43,47.09-.16,70.63-.46,18.81-.84,37.62-2,56.4-.73,11.44-3.17,22.77-10.79,33.08-9.55,12.91-24.85,19.63-43.72,21.85-17.09,2-34.44,2.57-51.77,3.3-26.22,1.1-52.4.13-78.56-.42-45.25-1-90.48.24-135.75-.51-33.58-.56-67,2.17-100.56,1.56a6.48,6.48,0,0,0-4.06,1c-4.23,2.94-9.2,3.5-14.84,2.71-16-2.25-31.38-5.8-44.79-13s-20-17.26-21.92-29.09c-2.49-15.51-.53-31.12-.83-46.69-.19-9.58.83-19.19.45-28.77-1-25.17-.06-50.35-1-75.52-.57-16.19-1.86-32.36-1.65-48.56a53.23,53.23,0,0,1,6.9-26.57c4.6-8,12-14.35,20.22-20.2,5.6-4,13.45-4.73,20.87-5.65a781.78,781.78,0,0,1,82.55-5.59c24.71-.43,49.33.48,74,.88,32.87.54,65.75,1.58,98.58-.07,9.83-.49,19.66-.13,29.47-.94,6.7-.56,11.88,3.11,12.13,7.85.28,5.08-4.28,9.17-11.18,8.93-31.7-1.06-63.43.2-95.1-1.2-10.15-.45-20.34-.37-30.51-.69-20.32-.64-40.7-1-61.05-.81-33.69.27-67.19,2.37-100.32,7.34-5,.75-7.59,3.13-10.59,5.65-7.55,6.33-12.9,13.56-13.69,22s-.28,16.95,0,25.42c.19,5.84,1.15,11.66,1.49,17.5.87,16.3,1.42,32.61,2.36,48.91,1.07,18.8,1.43,37.61,2.07,56.41.63,17.93,1.6,35.85,1.87,53.79.17,11.21,10,19.7,26.6,23.11,6.24,1.28,12.65,2.17,19.05,3,4.16.52,7.68,1.69,10.27,4.16a6.62,6.62,0,0,0,5.61,1.82c13.11-1.26,26.31-.64,39.47-1.11,22.67-.8,45.39-.57,68.08-1.11,23-.54,46.07-.26,69.08-.85C411.56,381,457.8,381,504,381a312.62,312.62,0,0,0,36.33-2.15c21.24-2.51,31.93-10.32,35.57-26.36a137.31,137.31,0,0,0,2.93-31.62c-.16-22.43-.13-44.87-1-67.29-.33-8.46-1.5-16.92-.88-25.37.91-12.17,2.8-24.3,3.54-36.47.82-13.17,1.7-26.36-2.24-39.44-5.75-18.95-21.28-30.46-46.14-35.34-5.63-1.1-7.83-3.25-7.39-7.12.4-3.63,3.45-5.67,8.66-5.73,27.89-.38,52,11.81,63.47,31.58,6.79,11.8,10.22,24.15,12.07,36.82.13.94-.4,2,1,2.71v1.49a5.82,5.82,0,0,0,0,5.24v2.25c-1.16,4.06-.2,8.18-.52,12.27.24,1.64-.53,3.34.52,4.94Z" transform="translate(-96.98 -2.42)" fill="#a2b5cc"/><path d="M444.6,245.08a45.74,45.74,0,0,0-7.29-11c-7.72-8.56-17.06-15.23-25.87-22.53a87.22,87.22,0,0,1-14.56-15c-2-2.73-1.72-5.68.76-7.63s4.87-1.79,7.23.63c9.05,9.24,20.18,15.74,30.66,23.09,10,7,19.14,14.72,24.81,25.82,6.48,12.66,5.36,24.93-1.85,36.93-6.46,10.73-15.67,19-24.68,27.4-7,6.53-14.24,12.83-20.94,19.69-5.35,5.49-12.4,5.68-17.49.58s-4.7-11.61.51-17.28c8.25-9,18.65-15.24,28.21-22.57,8-6.15,15.92-12.46,20.33-22,.31-.67.58-1.35,1-2.34a80,80,0,0,0-8.14-1c-13.32-.28-26.64-1.36-40-.75-19.49.89-39,1.72-58.46,3.06-18.22,1.25-36.41,3.43-54.7,2.73a186.84,186.84,0,0,1-35.43-4.27,8,8,0,0,1-6.21-6.7c-.63-3.14,2.14-4.74,4.64-6,5.75-3,12.09-3.75,18.35-4.54,21.67-2.72,43.47-2.52,65.24-2.19,14.18.21,28.35.84,42.51,1.49,12.66.58,25.31,1.39,37.95,2.22,9,.59,18.07,1.41,27.1,2.07A59.27,59.27,0,0,0,444.6,245.08Z" transform="translate(-96.98 -2.42)" fill="#feb5bc" stroke="#feb5bc" stroke-width="10"/><path d="M568.56,35.2a9.57,9.57,0,0,0-.63,4c.14,4.5.29,9,.19,13.49a41.56,41.56,0,0,1-1.19,9.13.86.86,0,0,0,.1.86,2.22,2.22,0,0,1,.29,2.34c-1.84,5.59-6,9.62-12.14,12.24a46.35,46.35,0,0,1-13.31,3.12,88.18,88.18,0,0,1-12,.29c-3.21-.09-6.41-.46-9.6-.78a58.45,58.45,0,0,0-8.05,0c-.29,0-.58.09-.86.09-6.17,0-12.34.39-18.51.17-6-.21-12-.71-17.65-2.62-6.87-2.32-11.54-6.42-14.29-12.1a35.7,35.7,0,0,1-3.09-11.12c-.47-3.69-.7-7.38-.82-11.08a2.5,2.5,0,0,1,5,0c0,1.8-.24,3.61-.16,5.42.17,3.93.31,7.87,1.48,11.73a21.07,21.07,0,0,0,5.95,9.73c3,2.75,7,4,11.17,4.93a58.14,58.14,0,0,0,9.43,1.16c2.51.14,5,.18,7.51.1,4.62-.13,9.25-.39,13.87-.64a63.92,63.92,0,0,1,12.37.09,28.27,28.27,0,0,0,3.57.2c3.29,0,6.59.21,9.88,0,5-.3,10-.88,14.47-2.87,4.7-2.08,8-5.15,9.25-9.55a2.81,2.81,0,0,1,1.75-2,1,1,0,0,0,.66-.75,29.42,29.42,0,0,0,1-6.88,58,58,0,0,0-.18-9.13c-.6-4.8.39-9.57.22-14.36a20.9,20.9,0,0,0-2.14-9c-1.74-3.42-4.77-5.78-8.81-7.27a38.92,38.92,0,0,0-11.71-2,99.81,99.81,0,0,0-18.14,1.1,97.87,97.87,0,0,1-16.59.71c-4.44-.16-8.88-.5-13.32-.73-3.63-.2-7.27-.24-10.88-.09-4.54.19-9,.87-13,2.92a15.38,15.38,0,0,0-6.25,5.52A6.07,6.07,0,0,1,462,23.5a2.08,2.08,0,0,1-2,.36,1.43,1.43,0,0,1-1.09-1.43c0-1.88,1.1-3.4,2.22-4.92,4-5.39,10.09-8,17.27-9.31a73.29,73.29,0,0,1,15.17-.69c5.64.18,11.26.68,16.9.93a81.28,81.28,0,0,0,11.15-.39c2.12-.19,4.26-.25,6.38-.4a93.89,93.89,0,0,1,10.34-.15c6.07.22,12.05.93,17.56,3.24,6.59,2.74,10.42,7.22,11.82,13.19a23.9,23.9,0,0,1,.66,3.84c.2.4,0,.82.1,1.23a5.23,5.23,0,0,0,.11,1.67v2a1.92,1.92,0,0,0,0,1.45Z" transform="translate(-96.98 -2.42)" fill="#fff" stroke="#fff" stroke-width="10"/><path d="M498.39,45.07a33.16,33.16,0,0,1,1.7-10.17c1.58-4.44,5.51-6.35,10.94-5.25a36,36,0,0,1,10,3.92q5,2.7,9.93,5.56a6.23,6.23,0,0,1,3.42,4.22c.38,2.24-.6,4.09-2.42,5.66a25.13,25.13,0,0,1-8,4.29c-3.59,1.3-7.22,2.53-10.82,3.79a9.19,9.19,0,0,0-1.77.7,8.05,8.05,0,0,1-10.58-2.62,15.67,15.67,0,0,1-2.17-6.76A16.27,16.27,0,0,1,498.39,45.07Z" transform="translate(-96.98 -2.42)" fill="#fff"/><path d="M502.73,45.52a20.92,20.92,0,0,1,1.93-9.83c.07-.14.14-.28.22-.41,1-1.61,1.88-2,4-1.64A19.84,19.84,0,0,1,516.76,37c3.34,2.12,6.48,4.46,9.93,6.48,1.06.62,1.08.79.15,1.58a33.76,33.76,0,0,1-7.91,4.59,58.27,58.27,0,0,0-9.38,4.89c-2.21,1.56-3.93,1.22-5.26-1a12.14,12.14,0,0,1-1.54-5.42C502.67,47.27,502.73,46.39,502.73,45.52Z" transform="translate(-96.98 -2.42)" fill="#fefefe" stroke="#fff" stroke-width="0.75"/></svg>