<svg id="Layer_1" data-name="Layer 1" xmlns="http://www.w3.org/2000/svg" viewBox="0 0 513.03 400.64"><path d="M539.21,214.62c-1.9,1.74-.93,3.81-1.08,5.72-1.87,23.54.42,47.08-.16,70.62-.47,18.8-.85,37.61-2,56.39-.72,11.44-3.15,22.77-10.78,33.08-9.55,12.91-24.86,19.62-43.69,21.84-17.11,2-34.45,2.57-51.77,3.3-26.22,1.1-52.41.13-78.57-.42-45.25-1-90.5.24-135.73-.51-33.59-.55-67,2.17-100.58,1.56a6.48,6.48,0,0,0-4.07,1.05c-4.23,2.95-9.16,3.5-14.83,2.71-16.06-2.25-31.4-5.8-44.8-13s-20-17.27-21.94-29.09c-2.48-15.51-.53-31.12-.82-46.68-.18-9.59.82-19.19.45-28.77-1-25.17-.06-50.35-.95-75.51-.57-16.19-1.86-32.36-1.65-48.55a53.37,53.37,0,0,1,6.88-26.58c4.58-7.94,12.06-14.34,20.24-20.18,5.59-4,13.45-4.74,20.87-5.66a781.92,781.92,0,0,1,82.56-5.59c24.72-.43,49.34.48,74,.89,32.87.54,65.76,1.57,98.6-.08,9.83-.49,19.67-.13,29.48-.94,6.69-.55,11.87,3.11,12.13,7.85.27,5.09-4.29,9.17-11.19,8.93-31.69-1.06-63.43.2-95.11-1.2-10.16-.45-20.34-.37-30.51-.69-20.34-.64-40.72-1-61.07-.81-33.71.27-67.21,2.37-100.34,7.34-5,.75-7.59,3.13-10.6,5.65-7.55,6.33-12.89,13.56-13.68,22s-.28,16.94,0,25.41c.2,5.84,1.2,11.66,1.5,17.5.87,16.3,1.42,32.61,2.35,48.91,1.08,18.79,1.44,37.6,2.08,56.4C55,325.38,56,343.3,56.28,361.24c.17,11.21,10,19.7,26.6,23.1,6.25,1.28,12.66,2.17,19.05,3,4.17.52,7.69,1.69,10.27,4.16a6.62,6.62,0,0,0,5.62,1.82c13.11-1.25,26.32-.63,39.49-1.1,22.66-.81,45.39-.58,68.08-1.11,23-.54,46.08-.26,69.09-.86,46.23-1.18,92.46-1.23,138.7-1.31a312.4,312.4,0,0,0,36.34-2.15c21.26-2.51,31.94-10.31,35.58-26.35A137,137,0,0,0,508,328.8c-.16-22.43-.12-44.87-.95-67.29-.32-8.45-1.5-16.92-.87-25.37.9-12.16,2.79-24.29,3.54-36.46.81-13.17,1.69-26.36-2.24-39.44-5.7-18.94-21.29-30.45-46.16-35.33-5.62-1.1-7.82-3.25-7.39-7.12.41-3.62,3.5-5.67,8.67-5.73,27.88-.34,52.1,11.85,63.48,31.62,6.79,11.8,10.22,24.14,12.07,36.81.13.94-.41,2,1,2.71v1.5a5.8,5.8,0,0,0,0,5.23v2.25c-1.18,4.07-.21,8.18-.52,12.27.24,1.64-.53,3.34.52,4.93Z" transform="translate(-26.18 -9.64)" fill="#a2b5cc"/><path d="M185.19,235c1.34-2.46,2.9-4.64,5.7-5.74,5.07-2,10.79.07,12.41,4.65a9,9,0,0,1-5.17,11.71c-5.5,2.08-10.49.15-12.6-4.85a2,2,0,0,0-.34-.43Z" transform="translate(-26.18 -9.64)" fill="#fed883" stroke="#fed883" stroke-width="5"/><path d="M353.91,230.26a74.54,74.54,0,0,1-8.45,33.55c-1,1.88-2.37,2.4-4.24,1.62a3.05,3.05,0,0,1-1.69-4.22,81.2,81.2,0,0,0,4.4-18.42c1.69-15.48-1.59-29.83-10.91-42.41-10.6-14.31-25-22.5-42.67-24.76-16-2-30.75,1.4-43.4,11.52-11.87,9.49-20.38,21.49-23.84,36.56-1.68,7.29-.91,14.62.68,21.84,2.68,12.16,8.49,22.85,15.65,32.9a212.48,212.48,0,0,0,17.74,21.08c1.76,1.89,2.44,4.26,3.17,6.62.24.77.48,1.47,1.51,1.23,2.6-.62,5.18,0,7.76.13,9,.45,17.94,1,26.89,1.84,3.76.36,3.78.33,4.7-3.21,2.16-8.31,7-14.85,13.52-20.18,4.13-3.37,8.81-2,10,2.74.67,2.71-.86,4.65-2.85,6.15-3.1,2.34-6.08,4.76-8.26,8.05a23.1,23.1,0,0,0-3.83,12.36c-.14,5.64.16,11.31-.1,16.94-.34,7.41-2.86,13.86-9.29,18.26a33.07,33.07,0,0,1-14.72,5.23c-8.07,1-15.68-.31-22.35-5.24a20.27,20.27,0,0,1-8.51-14.85c-.65-6.11.56-12.16.11-18.23-.25-3.22-.45-6.44-.83-9.64a8,8,0,0,0-2.44-4.61,176,176,0,0,1-22.21-27.45c-6.3-9.91-11.19-20.41-13.46-32.05a56.8,56.8,0,0,1,6.24-39.49,80.82,80.82,0,0,1,27.1-29.56,62.36,62.36,0,0,1,27.14-9.65c20.21-2.26,38.2,3.2,53.81,16a62.73,62.73,0,0,1,22.58,38.94A81.76,81.76,0,0,1,353.91,230.26Z" transform="translate(-26.18 -9.64)" fill="#fed883" stroke="#fed883" stroke-width="5"/><path d="M291.25,224.5a42,42,0,0,1,8.94-.5,13.79,13.79,0,0,1,6.36,1.7c4.77,2.66,6.37,8.19,3.93,13.54a32.16,32.16,0,0,1-8.12,10.45c-9.35,8.36-18.64,16.79-27.29,25.9a7.06,7.06,0,0,1-5.46,2.59c-3.65-.07-5.47-1.71-5.59-5.44-.15-4.86,1.38-9.37,3-13.84,1.07-3,2.28-5.86,3.51-9a44.07,44.07,0,0,1-9.07-.64c-9.2-1.87-12.84-8.24-10.9-17.31,1.66-7.73,5.53-14.4,10.33-20.54,2-2.58,3.48-5.58,6.27-7.58a24.86,24.86,0,0,1,11.43-4.25c5-.7,9.84.23,14.71,1,2,.31,4,.11,6,.56,3.09.7,4.13,2.69,2.51,5.47-3.21,5.54-6.54,11-9.82,16.5C291.84,223.41,291.68,223.74,291.25,224.5Z" transform="translate(-26.18 -9.64)" fill="#febb73" stroke="#febb73" stroke-width="5"/><path d="M211.53,194.61c0,6-3.38,9.59-9.08,9.6-6,0-10.37-4.24-10.39-10.22s3.57-9.53,9.33-9.67C206.41,184.19,212.1,188.11,211.53,194.61Z" transform="translate(-26.18 -9.64)" fill="#fed883" stroke="#fed883" stroke-width="5"/><path d="M370.74,192.94c.35,5.2-3.67,9.18-8.91,9.27-5.41.1-9.81-4.84-9.83-10.67,0-4.77,3.15-9,9-8.88A9.77,9.77,0,0,1,370.74,192.94Z" transform="translate(-26.18 -9.64)" fill="#fed883" stroke="#fed883" stroke-width="5"/><path d="M211.52,275.27c0,5.45-3.51,8.91-9.1,8.93-5.88,0-10-3.89-10-9.55,0-5.24,3.91-8.79,9.75-8.81C208.18,265.83,211.5,269.18,211.52,275.27Z" transform="translate(-26.18 -9.64)" fill="#fed883" stroke="#fed883" stroke-width="5"/><path d="M370.65,245c-5.68,0-8.94-3.54-9.19-9.3a9,9,0,0,1,9.3-9.48c5.72.13,9.45,3.7,9.44,9.34S376.44,245,370.65,245Z" transform="translate(-26.18 -9.64)" fill="#fed883" stroke="#fed883" stroke-width="5"/><path d="M353.11,277c0-5.28,3.5-8.79,8.79-8.79,5.58,0,9.19,3.93,9.21,10,0,5.19-3.55,8.65-8.93,8.64C356.65,286.85,353.13,283,353.11,277Z" transform="translate(-26.18 -9.64)" fill="#fed883" stroke="#fed883" stroke-width="5"/><path d="M301,331a17.51,17.51,0,0,1-.56,5.64,12.36,12.36,0,0,1-6.65,8.33c-8.91,4.38-17.78,5.23-26.52-.38-3.44-2.2-5-5.65-5.48-9.56-.67-5.07.45-10.07.85-15.09.08-1,.58-1.43,1.71-1.54,10.57-1.08,21.17-1.77,31.75-2.58,4-.31,4.06-.36,4.1,3.64C300.21,323.28,301.09,327,301,331Z" transform="translate(-26.18 -9.64)" fill="#fed883" stroke="#fed883" stroke-width="5"/><path d="M273.05,267.89c2.17-5.25,4.58-9.84,7-14.42a41.77,41.77,0,0,0,3.84-8.67c1.07-4-.86-6.85-5.92-6.47-4.55.35-9.09.95-13.62-.07-2.68-.6-3.47-1.81-2.9-4.5a27.11,27.11,0,0,1,3.58-8.15c2.39-4,4.88-8,7.42-12,1.91-3,5-4.13,8.26-4.42a79.5,79.5,0,0,1,8.17,0c1.05,0,1.5.37.84,1.51-2.28,3.94-4.5,7.93-6.75,11.9-.16.28-.39.51-.52.8-1.09,2.28-2.06,4.63-.42,7s4.1,2.4,6.51,2.2c2.77-.24,5.51-.8,8.26-1.22a11.33,11.33,0,0,1,4.53,0c2.86.7,3.86,3.25,2.21,5.68a80.48,80.48,0,0,1-12.25,13.75c-5.85,5.43-11.94,10.62-17.43,16.44A5.29,5.29,0,0,1,273.05,267.89Z" transform="translate(-26.18 -9.64)" fill="#fff" stroke="#febb73" stroke-width="2"/><path d="M486.69,52.78a16.34,16.34,0,0,0-.74,5.67c.16,6.41.34,12.83.22,19.24a71.37,71.37,0,0,1-1.41,13,1.38,1.38,0,0,0,.12,1.22,3.67,3.67,0,0,1,.34,3.34,26.92,26.92,0,0,1-14.4,17.47A47.32,47.32,0,0,1,455,117.2a88.75,88.75,0,0,1-14.3.42c-3.8-.13-7.59-.66-11.38-1.11a56.4,56.4,0,0,0-9.55,0c-.34,0-.68.12-1,.12-7.32,0-14.64.56-22,.24-7.13-.3-14.21-1-20.93-3.74A29.74,29.74,0,0,1,359,95.86,58.83,58.83,0,0,1,355.29,80c-.55-5.26-.83-10.53-1-15.81-.06-2.15,1.1-3.41,3-3.4s3,1.28,2.94,3.45c0,2.58-.29,5.16-.19,7.74.2,5.61.37,11.24,1.75,16.73a31.65,31.65,0,0,0,7.07,13.89c3.56,3.92,8.29,5.73,13.25,7a58.24,58.24,0,0,0,11.18,1.65,88.15,88.15,0,0,0,8.9.15c5.49-.19,11-.56,16.45-.92,4.88-.32,9.78-.68,14.67.13a28.5,28.5,0,0,0,4.24.29c3.9.07,7.81.3,11.71,0,5.94-.44,11.81-1.25,17.16-4.1,5.58-3,9.47-7.34,11-13.63a3.87,3.87,0,0,1,2.07-2.81,1.37,1.37,0,0,0,.79-1.06,50.22,50.22,0,0,0,1.2-9.82,97.69,97.69,0,0,0-.21-13c-.71-6.84.47-13.66.26-20.49A35.14,35.14,0,0,0,479,33.19a19.52,19.52,0,0,0-10.45-10.38,39.15,39.15,0,0,0-13.9-2.92,98.73,98.73,0,0,0-21.51,1.58,96.69,96.69,0,0,1-19.67,1c-5.27-.22-10.53-.7-15.8-1a111.11,111.11,0,0,0-12.9-.12c-5.39.27-10.68,1.24-15.38,4.16A19.79,19.79,0,0,0,362,33.35a8.79,8.79,0,0,1-1.69,2.73,2.12,2.12,0,0,1-2.37.52,2,2,0,0,1-1.29-2c0-2.68,1.3-4.85,2.63-7,4.71-7.69,12-11.47,20.48-13.29,5.94-1.27,12-1.21,18-1,6.68.25,13.35,1,20,1.32A81,81,0,0,0,431,14.05c2.52-.28,5-.36,7.57-.58a91.27,91.27,0,0,1,12.26-.21c7.2.31,14.29,1.33,20.84,4.62,7.8,3.92,12.35,10.31,14,18.82a39,39,0,0,1,.78,5.47,5.51,5.51,0,0,1,.12,1.76,9.1,9.1,0,0,0,.13,2.39v2.84a3.33,3.33,0,0,0,0,2.07Z" transform="translate(-26.18 -9.64)" fill="#ff7865" stroke="#ff7865" stroke-width="7"/><path d="M403.47,66.86a56.5,56.5,0,0,1,2-14.51c1.88-6.34,6.54-9.06,13-7.48a38.74,38.74,0,0,1,11.84,5.58q6,3.87,11.77,7.93a8.75,8.75,0,0,1,4.06,6,9.32,9.32,0,0,1-2.87,8.07,28.4,28.4,0,0,1-9.49,6.12c-4.25,1.86-8.55,3.61-12.83,5.42a10,10,0,0,0-2.09,1c-3.78,2.77-9.85,1.51-12.55-3.73a25.88,25.88,0,0,1-2.58-9.65A27.15,27.15,0,0,1,403.47,66.86Z" transform="translate(-26.18 -9.64)" fill="#ffadc0" stroke="#ffadc0" stroke-width="5"/><path d="M408.62,67.5a35.13,35.13,0,0,1,2.29-14,6.21,6.21,0,0,1,.26-.59c1.16-2.3,2.23-2.78,4.78-2.34,3.61.63,6.49,2.64,9.31,4.79,4,3,7.68,6.36,11.77,9.24,1.26.88,1.28,1.12.18,2.25a39.21,39.21,0,0,1-9.37,6.56c-3.84,2.12-7.76,4.1-11.14,7-2.61,2.22-4.65,1.74-6.24-1.39a20.4,20.4,0,0,1-1.82-7.73C408.54,70,408.62,68.75,408.62,67.5Z" transform="translate(-26.18 -9.64)" fill="#fefefe"/></svg>