<svg id="Layer_1" data-name="Layer 1" xmlns="http://www.w3.org/2000/svg" viewBox="0 0 446.43 410.22"><path d="M465.56,244.51c-4.85-29.89-13.5-58.55-28.39-85.06C409.76,110.66,370,77,315.8,61.31c-17.55-5.1-35.74-6.38-53.66-9.21-4.79-.76-9.73-1.58-14.69-1-10,1.1-20.16,1.41-30.16,3.14-51.52,9-93.57,34-126.2,74.66-24,29.88-36.48,64.68-42.52,102.12-.74,4.62-.37,9.45-2.31,13.87v9.86a27.38,27.38,0,0,1,0,14.78v9c1.25.45.85,1.58,1,2.44a180.68,180.68,0,0,0,5.34,28.16c12.07,41.45,34.66,76.22,67.35,104.23,38.48,33,82.59,50.81,134,47.32,12.6-.86,16.67-7.4,15.51-17.47-.71-6.24-1.15-12.54-1.29-18.82-1.14-51-2.15-102-3.31-153-.07-3,.95-3.54,3.64-3.78,13.34-1.17,26.66-2.57,40-3.92,5-.51,7.29-2.52,7.08-6.19s-2.54-5.42-7.65-5.25c-13.26.46-26.52.9-39.78,1.48-2.63.11-3.46-.61-3.5-3.36q-.54-39.2-1.42-78.38c-.09-3.61,1.1-4.25,4.37-4.2a361,361,0,0,0,57.28-3.28c2.87-.41,4,.41,4.8,3.22,6.16,21.15,10.33,42.73,14.67,64.28,1.05,5.21,3.91,7.7,8.25,7.09s6.65-3.85,5.71-9.14c-3.84-21.51-7.7-43-11.86-64.47-.66-3.37-.19-4.47,3.15-5.13a238,238,0,0,0,51.08-16.06c2.91-1.29,4.15-.78,5.8,1.74,15.31,23.4,25.22,48.95,30.7,76.31,1.8,9,2.37,18.15,4,27.15,1.18,6.7,7.6,10.41,14.27,9C462.45,257,466.67,251.36,465.56,244.51ZM203,72.07c-2.71,2.9-4.67,4.94-6.57,7.05-14.56,16.23-24.24,35.26-31.76,55.51-.69,1.86-1.14,3.18-3.59,2.64C146.33,134,132,129.89,118,122.73,141.43,97.72,169.55,81.61,203,72.07Zm-136,169.61C69.41,206,80.31,174,99.88,145.06c1.26-1.86,2.38-2,4.34-1.2,16,6.86,32.76,11.26,49.89,14.22,2.95.51,3.7,1.37,3,4.43a333.87,333.87,0,0,0-8.23,82.59c.07,3.32-.15,4.62-4.3,4.27-21.11-1.78-42.26-3.08-63.4-4.55-3.82-.27-7.64-.53-11.45-.83C66.87,243.77,66.87,243.75,66.94,241.68Zm44.65,123.76a3.21,3.21,0,0,1-4.12-1.34C86.73,337,73,307,67.78,273.13c-.49-3.17-.06-4.52,3.75-4.5,12.44.06,24.87.05,37.29,1.63,12.44,0,24.88.13,37.31-.09,3.17-.06,3.87,1.14,4.07,3.9a430.72,430.72,0,0,0,6.91,50.7,243.66,243.66,0,0,0,6.38,25.81c.74,2.39.5,3.4-2.43,3.81A287.07,287.07,0,0,0,111.59,365.44Zm65.34,58a222,222,0,0,1-47.14-34.61c-3.94-3.77-3.93-3.79.92-5.71a248.7,248.7,0,0,1,36-10.88c2.16-.49,3.56-.52,4.58,2.21,8.18,21.88,18.43,42.63,34,60.39.15.17.12.51.33,1.57A182.38,182.38,0,0,1,176.93,423.44Zm67.48,16.69c-.07,4.91,0,4.76-4.65,2.77-9.67-4.15-17.16-11-23.89-18.84-13.78-16.15-22.83-34.82-29.74-55.31,7.83-.95,15.37-2,22.94-2.77,11-1.13,22.06-1.71,33.12-2.06,2.41-.07,3.29.61,3.24,3.25C245,391.49,244.73,415.81,244.41,440.13Zm2.38-131.67h-1q0,17,0,34.05c0,5.38,0,5.25-5.63,5.82-14.3,1.45-28.68,1.4-43,2.41-4.23.3-8.47.48-12.68.93-2.58.28-3.77-.32-4.52-3.13a334.21,334.21,0,0,1-10.52-74.11c-.12-3.2.68-4.13,4-4.09,23.39.22,46.78,0,70.14-1.47,2.95-.18,3.34.94,3.32,3.47C246.72,284.38,246.79,296.42,246.79,308.46ZM248,171.1c-.05,13.12,0,26.24,0,39.36h-.67c0,13.13-.09,26.25.06,39.37,0,3-.78,4-3.9,3.89q-34.63-.89-69.25-2.43c-4.13-.19-4.58-1.63-4.38-5.45,1.37-26.82,5.75-53.16,11.81-79.28.74-3.2,1.88-4.23,5.11-3.82,19.39,2.44,38.88,3.85,58.4,4.69C248,167.56,248,169,248,171.1ZM244,149.57c-17.55-1.64-35.07-3.51-52.47-6.4-2.47-.41-3-1.13-2.15-3.4C197.22,117.61,208,97.22,225,80.56a53.34,53.34,0,0,1,17.82-11.41c2.88-1.15,4.06-1.07,4,2.58-.18,12.44-.07,24.89-.07,37.33H248c0,12.17-.1,24.35.07,36.52C248.06,148.68,247.5,149.9,244,149.57Zm76.35-.08a379.16,379.16,0,0,1-54.86,1.12c-2-.12-2.5-.8-2.5-2.68-.07-25.15.05-50.28,1.19-76.18a108.31,108.31,0,0,1,25.37,20c15,15.66,25,34.31,32.75,54.35C323.21,148.44,322.89,149.27,320.37,149.49ZM390,130.56A176.23,176.23,0,0,1,344.37,146c-2.52.52-2.93-.44-3.51-2.46-2.42-8.52-4.87-17-7.62-25.46a151.35,151.35,0,0,0-9.49-22.17c-3.72-7.19-8.6-13.55-14.82-20.4a110.75,110.75,0,0,1,18.27,6c24.22,10.45,46,24.39,63.65,44.33C393.1,128.29,392.75,129.12,390,130.56Z" transform="translate(-46.26 -50.89)" fill="#00b0f4"/><path d="M324.49,433.63c3.78,0,7.57-.08,11.35,0,3.48.1,5.61,2.34,5.79,5.8s-1.69,6.23-5,6.53c-10.7,1-21.41,1.54-32-1.05-16.65-4.07-22.95-14.28-19.09-31C288.63,400.6,295,388.64,302,377c8.53-14.08,17.42-27.94,26-42,4.36-7.13,6.57-15.19,9.27-23,3.47-10.07,7.45-19.86,14-28.41C363.15,268.1,379,264,397,271.93c14.76,6.49,26.19,17.2,36.82,28.95,10.46,11.56,18,25.13,26.55,38,7.62,11.52,15.21,23,20.9,35.6,6.61,14.63,12,29.57,11.36,46.05-.59,14.9-10.23,24.94-25.15,26.36-10,1-19.67-.47-29.33-2.5-4.38-.91-6.35-3.7-5.66-7.51s3.6-5.37,8-4.93c6,.6,12.08,1.12,18.21.26,11.52-1.62,17-9.44,14.47-21.2-2.44-11.4-7.74-21.59-13.87-31.27-13.56-21.44-25.9-43.65-40.86-64.18a109.9,109.9,0,0,0-26.15-25.89c-9-6.22-18.08-5.6-25.77,2.1-7.45,7.45-11.82,16.79-15,26.52-6.15,18.72-16.67,34.91-27.79,50.85-9.63,13.81-19.2,27.68-24.81,43.78-4.45,12.79-1.61,17.62,11.73,20.27C315.21,434.14,319.86,433.61,324.49,433.63Z" transform="translate(-46.26 -50.89)" fill="#fc7575"/><path d="M385.91,323.43c7.14,0,11.72,5.05,11.23,12.41-1.16,17.62-2.94,35.19-5.05,52.72a15.91,15.91,0,0,1-.76,3.26,5,5,0,0,1-5,3.71c-2.69.12-3.78-1.59-4.54-3.65a44.77,44.77,0,0,1-2.32-13.19c-.77-14.06-3.2-27.92-4.94-41.86C373.53,328.83,377.88,323.39,385.91,323.43Z" transform="translate(-46.26 -50.89)" fill="#fc7575"/><path d="M385.92,414.08c9.88,0,17.42,7.95,17.29,18.13-.13,10.47-8.47,17.76-20.33,17.76-10,0-17.09-7.17-17-17.25C365.92,422.06,374.55,414,385.92,414.08Z" transform="translate(-46.26 -50.89)" fill="#fc7575"/></svg>