<svg id="Layer_1"
    data-name="Layer 1"
    xmlns="http://www.w3.org/2000/svg"
    viewBox="0 0 384 384">

    <path
        d="M340.93,447.94c-2.21-2.22-3.6-5-5.14-7.67q-26.64-46.39-53.3-92.79c.91-2.16,3.07-1.9,4.75-2.3A141.49,141.49,0,0,0,345.85,316c1.54-1.28,2.87-2.78,4.4-4,1.69-1.39,3.1-3.3,5.59-3.38l6.08,10.53c.95,2.16-.78,3.23-1.95,4.37a150.88,150.88,0,0,1-27.67,20.82,132.76,132.76,0,0,1-23.85,11.46c-2.9,1-2.82,2.43-1.48,4.75,8,13.79,15.88,27.61,23.83,41.41,5.72,9.91,11.26,19.93,17.14,29.75a9.88,9.88,0,0,1,1.15,3.5c-.41,3.31-1.87,6.3-2.75,9.47-.48,1.75-2.06,2.22-3.17,3.25Z"
        transform="translate(-64 -64)"
        fill="#fb4755" />
    <path
        d="M178,435.51a60.62,60.62,0,0,1-7.66,12.43h-3.74c-3.56-5.57-4.51-12.12-6.66-18.21-2.9-8.23-5.31-16.63-7.85-25a5.94,5.94,0,0,0-3.41-4c0-1.17.89-1.44,1.69-1.66,3.85-1,7.75-1.82,11.68-2.47a4.5,4.5,0,0,1,5.1,3,360.1,360.1,0,0,1,11,34.85A2.47,2.47,0,0,1,178,435.51Z"
        transform="translate(-64 -64)"
        fill="#fc5461" />
    <path
        d="M355.84,308.63c-11.77,10.56-24.19,20.17-38.59,27a159.57,159.57,0,0,1-33,11.24,16.84,16.84,0,0,0-1.72.61c-4.79.55-9.57,1.16-14.37,1.64-13,1.31-26,.37-38.85-1.8a8,8,0,0,1-4.39,0,144.57,144.57,0,0,1-58.61-28.13c-3.22-2.56-6-5.61-9.26-8.08a3.74,3.74,0,0,1-1.49-2.48c-7.65-8.54-15.08-17.24-21.07-27.09C90.71,209.7,118.22,115.8,193.85,79c82.91-40.39,183.29,9.24,200.81,99.71,9.38,48.44-3.37,91-36.71,127.38C357.2,306.87,356.54,307.77,355.84,308.63Z"
        transform="translate(-64 -64)"
        fill="#f9a415" />
    <path
        d="M349.09,435.22c-8.46-13.46-15.92-27.5-23.91-41.25-6.3-10.84-12.47-21.77-18.82-32.59-2.72-4.65-2.71-4.68,2.38-6.63a150.25,150.25,0,0,0,44.58-26.59c3.16-2.72,6.93-4.86,8.6-9l43.16,74.92c-1.8,1.28-3.64.36-5.38,0-6.3-1.41-12.62-2.76-18.91-4.21-3.69-1-7.49-1.5-11.21-2.37-2.83-.67-4.58.38-5.34,3.09-1,3.44-2.12,6.83-3,10.3a10.68,10.68,0,0,0-2.44,4.48C355.6,415.31,352.33,425.26,349.09,435.22Z"
        transform="translate(-64 -64)"
        fill="#fc636e" />
    <path
        d="M178,435.51q-5.32-16.41-10.64-32.81c-1.82-5.57-2.48-5.92-8.33-4.49-3.45.85-7.07.94-10.35,2.49l-34.49,7.37c-.89-1.7.45-2.85,1.14-4.06,10-17.69,20.26-35.2,30.32-52.84q4.35-7.62,8.86-15.17c2-3.39,2.49-3.48,5.79-1.16a164.85,164.85,0,0,0,37.86,20.1A138.07,138.07,0,0,0,216,360.26c1.56.35,3.25.36,4.47,1.64q-20.9,36.39-41.81,72.76A7.27,7.27,0,0,1,178,435.51Z"
        transform="translate(-64 -64)"
        fill="#fc636e" />
    <path
        d="M220.5,361.9c-10.7-1.35-20.65-5.17-30.54-9.25a157.4,157.4,0,0,1-31.34-17.91c-1.47-1.05-1.91-.84-2.73.6-8.4,14.66-16.88,29.28-25.3,43.94q-8.25,14.37-16.42,28.79l-9,2.24a4,4,0,0,1-4.34-1.45,4,4,0,0,1-.35-4.54c.21-.45.45-.88.7-1.32q26.57-46.24,53.15-92.48c.37-.65.81-1.26,1.22-1.88,10.33,9.34,21.18,17.95,33.57,24.49a150.74,150.74,0,0,0,40.18,14.19Q224.89,354.61,220.5,361.9Z"
        transform="translate(-64 -64)"
        fill="#fb4755" />
    <path
        d="M380.59,388.82l24.49,5.26c1.81,3.18,3.74,6.31,5.41,9.56,1.94,3.78-.11,6.82-4.38,6.13-6.53-1-13-2.6-19.45-4-2-.42-4.05-.9-6.07-1.36A22.53,22.53,0,0,1,380.59,388.82Z"
        transform="translate(-64 -64)"
        fill="#fc5460" />
    <path
        d="M380.59,388.82v15.63c-6.47-1.09-12.67-3.66-19.36-3.59a1.48,1.48,0,0,1-.63-1.93c1-3.2,1.86-6.44,3-9.59,1-2.67,2.65-3.88,5.78-2.95C373,387.48,376.84,388,380.59,388.82Z"
        transform="translate(-64 -64)"
        fill="#fc5460" />
    <path
        d="M255.65,105.21a101.74,101.74,0,0,1,101.68,102c0,56.24-45,102.12-101.73,102.07S153.85,263.59,153.88,206.82C153.91,150.82,199.63,105.21,255.65,105.21Z"
        transform="translate(-64 -64)"
        fill="#f9ef63" />
    <path
        d="M173.23,242.89c-6.86-14.84-8.72-30.4-6.79-46.52,2.64-22,12.22-40.48,28.44-55.52a87.08,87.08,0,0,1,49.13-23c18.81-2.47,36.83.37,53.39,9.5,27,14.88,43.12,37.64,47.31,68.42a83.75,83.75,0,0,1-6,45.59c-.76.81-1,1.92-1.71,2.77-7.57,12.06-18.55,20.43-30.58,27.43a99.25,99.25,0,0,1-57.78,13.35c-21.88-1.51-41.33-9.5-58.39-23.36A79.21,79.21,0,0,1,173.23,242.89Z"
        transform="translate(-64 -64)"
        fill="#f9d107" />
    <path
        d="M173.23,242.89c4.11,4.45,7.94,9.2,12.37,13.3,15,13.89,32.48,23,52.82,26.43a99.54,99.54,0,0,0,66.86-11.48c11.58-6.47,21.82-14.68,29.8-25.46a18.68,18.68,0,0,1,2.1-2.07.56.56,0,0,1,.24.57c-.05.21-.11.31-.17.31-5.8,13.89-15.07,25.07-26.85,34.26A85.59,85.59,0,0,1,269,296.53c-26.19,3.62-49.8-2.79-70.41-19.62A84.62,84.62,0,0,1,173.23,242.89Z"
        transform="translate(-64 -64)"
        fill="#f9a415" />
    <path
        d="M337.25,244.49c0-.29-.05-.58-.07-.88a2.31,2.31,0,0,1,1.52-2.22A4.75,4.75,0,0,1,337.25,244.49Z"
        transform="translate(-64 -64)"
        fill="#f9b41c" />
    <path
        d="M223,254c-1.79-.42-3.26-1.83-2.81-4.55,1.63-9.77,3.17-19.55,5.08-29.26.5-2.58,0-4.39-1.69-6-6.77-6.43-12.86-13.55-20.12-19.49-1.66-1.36-3.65-2.89-2.82-5.59s2.82-2.91,5.25-3.24c9.43-1.28,18.82-2.93,28.24-4.27a5.34,5.34,0,0,0,4.48-3.33c4.28-8.72,8.67-17.39,13-26.1.85-1.72,1.67-3.44,3.91-3.51,2.45-.08,3.33,1.75,4.24,3.59,4.26,8.6,8.6,17.15,12.82,25.77a5.61,5.61,0,0,0,4.7,3.6c9.67,1.31,19.31,3,29,4.27,2.3.31,3.74,1.22,4.43,3.3s-.69,3.61-2.09,4.8c-7.06,5.95-13.23,12.82-19.9,19.17-2.34,2.23-3.26,4.39-2.52,7.88,1.9,9.08,3.08,18.3,4.77,27.42.39,2.09.22,3.71-1.41,5s-3.54.58-5.23-.32c-8.25-4.37-16.54-8.65-24.7-13.18a7.35,7.35,0,0,0-8,0c-8,4.47-16.23,8.7-24.37,13A6.51,6.51,0,0,1,223,254Z"
        transform="translate(-64 -64)"
        fill="#f9a415" />
</svg>