<svg id="Layer_1" data-name="Layer 1" xmlns="http://www.w3.org/2000/svg" viewBox="0 0 309 310.11">
    <path
        d="M326.16,215.46c-1.14-12.64-2.86-25.22-4.09-37.85a342.19,342.19,0,0,1-.86-58.06c1.22-16.81,1.8-33.55-2.48-50.16-4-15.48-13.47-24.71-29.3-27.42-13.73-2.35-27.27-.6-40.59,2.58-20.82,5-41.54,10.33-62.24,15.79a65,65,0,0,0-22.9,11.39c-17.51,13.37-25.28,32.14-29,53-5,28.2-2.24,56.33,1.39,84.4,1.24,9.72,2.78,19.39,4.24,29.54-5.19-2-9.89-4-14.89-4.69a58.94,58.94,0,0,0-15.64-.41c-46.39,5.61-53,58.13-35.1,81.13,13.34,17.19,31.47,22.36,52.22,18.51,20.08-3.72,33.16-17.06,36.93-36.86,1.89-9.85,1.7-19.92,2-29.92a745,745,0,0,0-3.34-91.84c-.24-2.58.56-3.69,2.86-4.58a279.77,279.77,0,0,1,33.57-10.56c24.92-6.25,50.37-10.16,75.09-17.25a276.76,276.76,0,0,0,28.77-10.32c-.26,3.78-.42,6.91-.79,10-1.83,20.23-4.58,40.37-5.33,60.69-.25,6.5-.09,6.31-6.09,4.2-18.87-6.66-36.69-5.35-53,7.39-18.66,14.56-17.74,52-5.88,67.56,12.68,16.68,29.9,22.13,49.74,19.48,22-3,36.66-17.57,39.58-39.57,1.08-8.15,2.4-16.26,3.61-24.38C325.73,230,326.82,222.75,326.16,215.46Zm-184.94,78c-1.11,12.17-11,21.52-23.8,22.53-1.58.12-3.16.16-3.92.2-17.69-.13-29.66-9.91-31.18-24.81C80.73,275.75,91.9,263.68,109,262.5a40.36,40.36,0,0,1,13.66,1.29C136.2,267.57,142.66,277.85,141.22,293.41Zm156.07-39.9c-3.13,11.38-11.89,18.54-23.75,19.39-1.42.1-2.85,0-4.28,0a32.45,32.45,0,0,1-20.46-6.47c-10.24-7.6-10.26-21.89-6.09-32.23,4-10,14.76-15.26,26.32-13.52A40.45,40.45,0,0,1,285.81,227C295.81,233.71,300,243.51,297.29,253.51Zm1.15-142.46c-16,10.49-33.83,15.73-52.46,18.81-21.14,3.51-42.6,4.32-63.76,7.65-5.79.91-11.52,2.16-17.27,3.33-1.8.37-3.58,1.06-3.5-1.92.45-17.62,2.86-34.59,16.22-47.82a44.59,44.59,0,0,1,20-11.67c19.48-5.13,38.35-12.38,58-16.73,10.37-2.29,20.77-4.54,31.56-2.58,9,1.64,14.12,6.68,15.27,15.66.91,7.22,3.23,14.25,3,22.51C306.7,103.81,303.69,107.62,298.44,111.05Z"
        transform="translate(-41.45 -32.59)" fill="#cfcfcf" stroke="#cfcfcf" stroke-miterlimit="10"
        stroke-width="10" />
    <path
        d="M64.83,310.65C88.91,288,112.16,264.53,135.32,241c29.82-30.39,59-61.37,88.33-92.17,31.26-32.8,62.78-65.37,95.22-97.11,9.25-9,17.06-11.48,20.55-6.66,3.14,4.27-1.07,13.45-9.8,21.36-34.16,30.91-67.29,63.09-100,95.87q-59.91,60-119.72,120.17c-13.77,13.9-27.23,28.14-40.9,42.17-6.28,6.44-11.83,9.15-15.26,7.76-4.71-1.9-2-9.42,6.12-17C61.53,313.79,63.19,312.21,64.83,310.65Z"
        transform="translate(-41.45 -32.59)" fill="#69706f" stroke="#69706f" stroke-miterlimit="10"
        stroke-width="20" />
</svg>