<svg id="Layer_1" data-name="Layer 1" xmlns="http://www.w3.org/2000/svg" viewBox="0 0 270.81 303.53"><path d="M270.6,184.56c-1.14-12.64-2.86-25.22-4.09-37.85a342.19,342.19,0,0,1-.86-58.06c1.22-16.81,1.8-33.55-2.48-50.16-4-15.48-13.47-24.71-29.3-27.42-13.73-2.35-27.27-.6-40.59,2.58C172.46,18.62,151.74,24,131,29.44a65.3,65.3,0,0,0-22.9,11.39c-17.51,13.37-25.28,32.14-29,53-5,28.2-2.24,56.33,1.39,84.4,1.24,9.72,2.78,19.39,4.24,29.54-5.19-2-9.89-4-14.89-4.69a58.94,58.94,0,0,0-15.64-.41c-46.39,5.61-53,58.13-35.1,81.13C32.48,301,50.61,306.16,71.36,302.31c20.08-3.72,33.16-17.06,36.93-36.86,1.89-9.85,1.7-19.92,2-29.92A745,745,0,0,0,107,143.69c-.24-2.58.56-3.69,2.86-4.58a279.77,279.77,0,0,1,33.57-10.56c24.92-6.25,50.37-10.16,75.09-17.25A276.76,276.76,0,0,0,247.24,101c-.26,3.78-.42,6.91-.79,10-1.83,20.23-4.58,40.37-5.33,60.69-.25,6.5-.09,6.31-6.09,4.2-18.87-6.66-36.69-5.35-53,7.39-18.66,14.56-17.74,52-5.88,67.56,12.68,16.68,29.9,22.13,49.74,19.48,22-2.95,36.66-17.57,39.58-39.57,1.08-8.15,2.4-16.26,3.61-24.38C270.17,199.13,271.26,191.85,270.6,184.56ZM95.49,258.73C94.2,272.92,82.66,283.83,67.73,285c-1.84.14-3.69.18-4.57.23-20.64-.15-34.6-11.56-36.37-28.94C24.93,238.12,38,224,57.91,222.67a47,47,0,0,1,15.93,1.5C89.64,228.58,97.17,240.57,95.49,258.73ZM242.88,80.15c-16,10.49-33.83,15.73-52.46,18.81-21.14,3.51-42.6,4.32-63.76,7.65-5.79.91-11.52,2.16-17.27,3.33-1.8.37-3.58,1.06-3.5-1.92.45-17.62,2.86-34.59,16.22-47.82a44.59,44.59,0,0,1,20-11.67c19.48-5.13,38.35-12.38,58-16.73,10.37-2.29,20.77-4.54,31.56-2.58,9,1.64,14.12,6.68,15.27,15.66.91,7.22,3.23,14.25,3,22.51C251.14,72.91,248.13,76.72,242.88,80.15ZM249.27,227c-3.55,12.88-13.46,21-26.88,21.94-1.61.11-3.23,0-4.85,0a36.66,36.66,0,0,1-23.15-7.32c-11.59-8.6-11.62-24.77-6.9-36.48,4.53-11.31,16.71-17.27,29.79-15.3a45.77,45.77,0,0,1,19,7.17C247.59,204.57,252.38,215.66,249.27,227Z" transform="translate(-4.99 -4.99)" fill="#ffda7e" stroke="#ffda7e" stroke-miterlimit="10" stroke-width="10"/></svg>