<svg xmlns="http://www.w3.org/2000/svg" width="680.838" height="672.973" viewBox="0 0 680.838 672.973">
  <g id="Group_1" data-name="Group 1" transform="translate(-119.797 260.276) rotate(-30)">
    <g id="Group_4" data-name="Group 4" transform="translate(-42 0)">
      <g id="Path_21" data-name="Path 21" transform="translate(-18.237 -52.095)" fill="#f1be9b">
        <path d="M 420.9958190917969 622.3597412109375 C 419.2913208007813 622.3597412109375 417.6955871582031 621.934326171875 416.3811645507813 621.12939453125 C 415.1918029785156 620.4013061523438 413.9268798828125 620.0905151367188 412.152099609375 620.0905151367188 C 410.9469604492188 620.0905151367188 409.6351013183594 620.2330322265625 408.2462463378906 620.3839721679688 C 406.7387390136719 620.5477294921875 405.1799621582031 620.7171020507813 403.5192260742188 620.7374877929688 C 396.8053894042969 620.8199462890625 389.9560852050781 621.062744140625 383.3322448730469 621.297607421875 C 376.8794555664063 621.5263061523438 370.20703125 621.7628173828125 363.6163024902344 621.853759765625 C 362.3849487304688 621.8707885742188 361.1375122070313 621.87939453125 359.9086608886719 621.87939453125 C 348.2040100097656 621.8794555664063 336.4749450683594 621.096435546875 325.0472412109375 619.5523071289063 C 313.5173950195313 617.9942016601563 301.9750366210938 615.6181640625 290.7408142089844 612.4901123046875 C 284.29638671875 610.69580078125 278.3458862304688 608.2040405273438 273.0548706054688 605.0838623046875 C 267.842529296875 602.0101318359375 263.1282348632813 598.2437133789063 259.04296875 593.8890991210938 C 255.0751037597656 589.65966796875 251.5945892333984 584.7617797851563 248.6982421875 579.33154296875 C 245.9140930175781 574.111572265625 243.5896606445313 568.2483520507813 241.7895965576172 561.9046020507813 C 240.2431640625 556.4561157226563 239.0049591064453 550.8162231445313 238.1093139648438 545.1419677734375 C 237.2463836669922 539.6748657226563 236.6753845214844 534.0098266601563 236.4120941162109 528.3040161132813 C 236.1597442626953 522.83447265625 236.1824493408203 517.1569213867188 236.4795989990234 511.4293823242188 C 236.7628173828125 505.9703674316406 237.3045959472656 500.2895812988281 238.0898895263672 494.5449523925781 C 238.1663055419922 493.9837951660156 238.1786041259766 493.2820739746094 238.1915283203125 492.5391540527344 L 238.1946716308594 492.3602905273438 C 238.2968139648438 486.9477233886719 238.4030303955078 481.4498596191406 238.5057373046875 476.1330261230469 C 238.7824554443359 461.8100280761719 239.068603515625 446.9994506835938 239.3020324707031 432.4351501464844 C 239.4516754150391 423.0653686523438 239.5523834228516 413.5301513671875 239.6497344970703 404.3088073730469 C 239.8447418212891 385.8493041992188 240.0463104248047 366.7612915039063 240.6504516601563 347.9735107421875 C 241.1085968017578 333.7129516601563 241.4308166503906 319.1982421875 241.7424468994141 305.1613159179688 C 242.0928039550781 289.3780212402344 242.4551696777344 273.057373046875 243.0125274658203 256.9993591308594 C 243.3093872070313 248.4467315673828 243.2938842773438 239.7013702392578 243.2789611816406 231.2440185546875 C 243.2574462890625 219.0874481201172 243.2351684570313 206.51708984375 244.1299591064453 194.1096649169922 C 244.6283874511719 187.1973724365234 244.6125183105469 180.0697326660156 244.5970916748047 173.1767272949219 C 244.5750274658203 163.2675933837891 244.5520935058594 153.0211639404297 246.0106658935547 142.8031616210938 C 246.5531005859375 139.0034484863281 247.5268859863281 135.1571655273438 248.9049530029297 131.37109375 C 250.2310180664063 127.7277984619141 251.9437408447266 124.1055908203125 253.9955902099609 120.6048736572266 C 255.9925231933594 117.1978759765625 258.3245849609375 113.8817291259766 260.9269409179688 110.7487335205078 C 263.4947509765625 107.6572265625 266.3390197753906 104.7277984619141 269.3807983398438 102.0416564941406 C 272.4268798828125 99.35173034667969 275.6851806640625 96.89344787597656 279.0651550292969 94.73501586914063 C 282.4998779296875 92.54158782958984 286.07958984375 90.64572906494141 289.7048034667969 89.10015869140625 C 293.4383850097656 87.50836944580078 297.2492980957031 86.27601623535156 301.0317993164063 85.43737030029297 C 304.9690856933594 84.56436920166016 308.9165954589844 84.10916137695313 312.7645874023438 84.08437347412109 C 317.6751098632813 84.05301666259766 322.6849670410156 83.97430419921875 327.5298156738281 83.89823150634766 C 333.860107421875 83.79880523681641 340.4059448242188 83.69601440429688 346.8572387695313 83.69601440429688 C 356.5714416503906 83.69601440429688 364.5688171386719 83.92965698242188 372.025390625 84.43137359619141 C 376.7134399414063 84.74672698974609 381.694091796875 84.90008544921875 387.2518005371094 84.90008544921875 C 394.8453063964844 84.90008544921875 402.6022338867188 84.60973358154297 410.1036682128906 84.32887268066406 C 417.6875915527344 84.04501342773438 425.5296630859375 83.75144195556641 433.2908020019531 83.75144195556641 C 437.7506103515625 83.75144195556641 441.8106079101563 83.84601593017578 445.702880859375 84.04051208496094 C 445.8471069335938 84.04779815673828 445.9887390136719 84.05144500732422 446.1253051757813 84.05144500732422 C 447.7176818847656 84.05144500732422 448.961669921875 83.55987548828125 450.2848815917969 82.40787506103516 C 452.565673828125 80.42194366455078 455.1068725585938 78.89823150634766 457.8377380371094 77.87915802001953 C 460.5646667480469 76.86151885986328 463.485107421875 76.34551239013672 466.517822265625 76.34551239013672 C 466.645751953125 76.34551239013672 466.7733154296875 76.34644317626953 466.9018249511719 76.34822845458984 C 467.8933715820313 76.36251831054688 468.9145202636719 76.36972808837891 469.9376831054688 76.36972808837891 C 479.9246826171875 76.36972808837891 490.1292419433594 75.68209075927734 499.9978942871094 75.01708984375 C 503.357177734375 74.79073333740234 506.830810546875 74.55665588378906 510.2593078613281 74.35187530517578 C 513.1112670898438 74.1815185546875 515.9407348632813 74.09516143798828 518.6693115234375 74.09516143798828 C 524.462158203125 74.09516143798828 530.0806884765625 74.48508453369141 535.3687133789063 75.25408935546875 C 540.9822387695313 76.07044219970703 546.409912109375 77.34072875976563 551.5009765625 79.02958679199219 C 556.8592529296875 80.80722808837891 562.0118408203125 83.10358428955078 566.8155517578125 85.85508728027344 C 571.8225708007813 88.72301483154297 576.5999755859375 92.17073059082031 581.0149536132813 96.10237121582031 C 586.291748046875 100.8010864257813 590.6370239257813 106.4393692016602 593.9298095703125 112.8604431152344 C 596.9408569335938 118.7319412231445 599.1409301757813 125.3980865478516 600.4689331054688 132.6736602783203 C 602.6818237304688 144.7973785400391 604.1396484375 157.7138671875 604.8019409179688 171.0645141601563 C 605.4044799804688 183.2095947265625 605.38525390625 195.7808685302734 604.7432250976563 209.4969482421875 C 604.2958374023438 219.0538787841797 604.1177978515625 228.6497344970703 603.9921264648438 237.5957336425781 C 603.8316650390625 249.0752258300781 603.757080078125 260.7597961425781 603.6849365234375 272.0596618652344 C 603.5396118164063 294.8279418945313 603.3892822265625 318.3714294433594 602.5303955078125 341.5390014648438 C 601.9483642578125 357.2310791015625 601.9598999023438 373.2236022949219 601.970947265625 388.6895751953125 C 601.9791259765625 399.9480895996094 601.9874267578125 411.5899353027344 601.7678833007813 423.0653076171875 C 601.7555541992188 423.7281494140625 601.7578735351563 424.4017333984375 601.7604370117188 425.1148681640625 C 601.7638549804688 426.0923767089844 601.7673950195313 427.1030883789063 601.7313232421875 428.1433715820313 C 601.6094360351563 431.6112976074219 600.636474609375 434.4730224609375 598.8392333984375 436.6510009765625 C 597.390625 438.4066467285156 594.6878662109375 440.5430297851563 590.0388793945313 440.7503662109375 C 589.8349609375 440.759521484375 589.6300048828125 440.7640991210938 589.4293212890625 440.7640991210938 C 587.660888671875 440.7640991210938 586.0070190429688 440.4129333496094 584.513671875 439.7203063964844 C 583.091552734375 439.0606689453125 581.8401489257813 438.1043701171875 580.79443359375 436.8780822753906 C 579.1905517578125 434.9971008300781 578.118408203125 432.5503845214844 577.6077270507813 429.60595703125 C 576.61083984375 423.8515014648438 576.1754760742188 418.6714477539063 576.2766723632813 413.7689514160156 C 576.6378784179688 396.3761596679688 575.7315063476563 378.6449584960938 574.8550415039063 361.4974365234375 C 574.3980712890625 352.5575866699219 573.925537109375 343.3133850097656 573.6350708007813 334.1921691894531 C 572.59521484375 301.5535278320313 571.8784790039063 269.605224609375 571.5047607421875 239.2348022460938 C 571.476806640625 236.9720916748047 571.4508666992188 234.7085113525391 571.425048828125 232.4446563720703 C 571.2615966796875 218.1576538085938 571.0925903320313 203.3842315673828 570.3764038085938 188.9394378662109 C 569.5647583007813 172.5990905761719 567.9533081054688 157.6929473876953 565.4501953125 143.3697967529297 C 561.3925170898438 120.1395874023438 540.4087524414063 115.984016418457 531.5752563476563 115.2756576538086 C 528.6278686523438 115.0395126342773 525.62353515625 114.9247283935547 522.3910522460938 114.9247283935547 C 512.6068725585938 114.9247283935547 502.5570373535156 116.0273742675781 492.8380126953125 117.0936584472656 C 489.8988037109375 117.4161605834961 486.8595886230469 117.7495880126953 483.8568115234375 118.0499420166016 C 480.4517517089844 118.3905868530273 476.7831726074219 118.7058029174805 473.0291748046875 118.7058715820313 C 463.7167358398438 118.7060165405273 456.2662963867188 116.6719436645508 449.5822448730469 112.3046569824219 C 448.3366088867188 111.4907989501953 446.6923217773438 111.1117324829102 444.4076538085938 111.1117324829102 C 442.4250183105469 111.1117324829102 440.2642517089844 111.3898696899414 437.9765930175781 111.6843719482422 C 436.1716613769531 111.9167327880859 434.3052368164063 112.1569442749023 432.4468078613281 112.2635192871094 C 431.4214477539063 112.3224411010742 430.3760375976563 112.4203720092773 429.2691650390625 112.5240173339844 C 427.3660278320313 112.7023010253906 425.3981018066406 112.886589050293 423.3387451171875 112.886589050293 C 413.1321105957031 112.8869476318359 402.7478942871094 112.9292297363281 392.7055358886719 112.970085144043 C 382.6130981445313 113.0111618041992 372.1770324707031 113.0536575317383 361.9088745117188 113.0536575317383 C 344.9413757324219 113.0537338256836 331.053955078125 112.935661315918 318.2042541503906 112.6820907592773 C 317.9670104980469 112.6774444580078 317.7261657714844 112.6750869750977 317.4883728027344 112.6750869750977 C 297.8258972167969 112.6750869750977 278.1638793945313 129.0019378662109 275.4117431640625 147.6145935058594 C 275.0918884277344 149.7724456787109 274.93603515625 151.6956634521484 274.9350891113281 153.4960174560547 C 274.9097290039063 194.6818695068359 274.9105834960938 236.5572967529297 274.9115295410156 277.0540161132813 L 274.9117431640625 294.6507873535156 L 274.94287109375 294.6507873535156 L 274.94287109375 299.6507873535156 C 274.94287109375 313.3034362792969 274.8829650878906 327.1801452636719 274.8250122070313 340.5999450683594 C 274.6888122558594 372.1494445800781 274.5479431152344 404.7731018066406 275.1766052246094 436.8147888183594 C 275.503173828125 453.4736633300781 275.6218872070313 470.3923034667969 275.7366027832031 486.7539367675781 C 275.8299560546875 500.0580139160156 275.9264526367188 513.8150634765625 276.1343078613281 527.3347778320313 C 276.2473754882813 534.7042846679688 277.6605834960938 542.6270751953125 280.3347473144531 550.8832397460938 C 284.8519592285156 564.8287353515625 295.0447387695313 572.1444702148438 314.4168090820313 575.3450927734375 C 328.5344543457031 577.6770629882813 344.048583984375 578.810791015625 361.8455200195313 578.8108520507813 C 362.497314453125 578.8108520507813 363.1637268066406 578.8093872070313 363.8262329101563 578.8064575195313 C 370.4222412109375 578.7771606445313 377.1321716308594 578.7357788085938 383.62109375 578.69580078125 C 395.9064636230469 578.6199951171875 408.610107421875 578.541748046875 421.1091003417969 578.541748046875 C 438.4211730957031 578.541748046875 452.7547302246094 578.6904907226563 466.2178039550781 579.010009765625 C 485.9996032714844 579.4791870117188 506.2995300292969 579.7348022460938 528.2774047851563 579.7914428710938 L 528.4398193359375 579.7916870117188 C 555.1726684570313 579.7916870117188 573.4822998046875 562.5202026367188 575.0859375 535.7906494140625 C 575.3472900390625 531.4285278320313 576.7112426757813 527.6588134765625 579.0303955078125 524.8893432617188 C 581.5755004882813 521.8499145507813 585.1428833007813 520.1760864257813 589.0752563476563 520.1760864257813 C 590.5569458007813 520.1760864257813 592.0779418945313 520.4141845703125 593.5960693359375 520.8836669921875 C 596.1865844726563 521.6854248046875 598.2045288085938 522.9194946289063 599.7665405273438 524.6566772460938 C 601.3652954101563 526.4345703125 602.4087524414063 528.7063598632813 602.8678588867188 531.4088134765625 C 603.7891235351563 536.8267211914063 604.059814453125 542.2557373046875 603.6723022460938 547.5443725585938 C 603.3026123046875 552.58984375 602.3223876953125 557.6599731445313 600.7589111328125 562.6136474609375 C 599.2918701171875 567.2617797851563 597.2626953125 571.9591064453125 594.7276611328125 576.5750732421875 C 592.382568359375 580.84521484375 589.5175170898438 585.202880859375 586.2119750976563 589.5270385742188 C 582.5582885742188 594.30712890625 578.4503784179688 598.5029907226563 574.0026245117188 601.9978637695313 C 569.6907348632813 605.3858642578125 564.9246215820313 608.2210693359375 559.8363647460938 610.4246826171875 C 554.9900512695313 612.5234375 549.6911010742188 614.1177978515625 544.0867919921875 615.1634521484375 C 538.8212280273438 616.1458740234375 533.0908203125 616.6793823242188 527.0547485351563 616.7491455078125 C 514.6351928710938 616.8931884765625 501.9683227539063 617.4429321289063 489.7185974121094 617.974609375 C 480.0063171386719 618.3961791992188 469.96337890625 618.83203125 460.0541687011719 619.0664672851563 C 456.9335327148438 619.1405639648438 453.7620849609375 619.2025146484375 450.6950988769531 619.2623901367188 C 444.3299560546875 619.3866577148438 437.7481079101563 619.51513671875 431.3033752441406 619.7591552734375 C 430.9908752441406 619.7709350585938 430.6640319824219 619.7764282226563 430.2742309570313 619.7764282226563 C 430.0519409179688 619.7764282226563 429.8297424316406 619.774658203125 429.607666015625 619.7728271484375 C 429.4138793945313 619.7711791992188 429.2203063964844 619.76953125 429.027099609375 619.76953125 C 427.4801635742188 619.76953125 427.3138732910156 619.9224243164063 427.1531066894531 620.0703735351563 C 425.5466003417969 621.5471801757813 423.3603820800781 622.3597412109375 420.9958190917969 622.3597412109375 Z" stroke="none"/>
        <path d="M 518.669189453125 79.09515380859375 C 515.986083984375 79.09521484375 513.280517578125 79.1802978515625 510.5574951171875 79.34295654296875 C 495.9837341308594 80.21356201171875 481.4501647949219 81.55743408203125 466.830810546875 81.34771728515625 C 461.8144226074219 81.2763671875 457.3173522949219 82.914306640625 453.5680236816406 86.1788330078125 C 451.161865234375 88.27374267578125 448.5711059570313 89.191162109375 445.4533386230469 89.03424072265625 C 426.0458374023438 88.064208984375 406.6791687011719 89.89996337890625 387.2514343261719 89.9000244140625 C 382.0693054199219 89.9000244140625 376.8823852539063 89.7694091796875 371.6897277832031 89.42010498046875 C 352.13916015625 88.10467529296875 332.4328308105469 88.95855712890625 312.7967529296875 89.084228515625 C 284.2686767578125 89.26776123046875 254.9867553710938 115.3063354492188 250.9605102539063 143.5097045898438 C 248.5432739257813 160.4439086914063 250.34228515625 177.4772338867188 249.116943359375 194.4693298339844 C 247.6148071289063 215.2996215820313 248.735595703125 236.2534790039063 248.009521484375 257.1727905273438 C 246.9577026367188 287.4777221679688 246.6218872070313 317.813720703125 245.6478881835938 348.1342468261719 C 244.743896484375 376.2463989257813 244.7505493164063 404.3875427246094 244.3013305664063 432.5153198242188 C 243.9811401367188 452.4950866699219 243.57080078125 472.4715576171875 243.1939086914063 492.4501647949219 C 243.1771850585938 493.3753051757813 243.1683349609375 494.3081665039063 243.043701171875 495.22216796875 C 240.0360107421875 517.2244873046875 240.5008544921875 539.0510864257813 246.5996704101563 560.5396118164063 C 253.3477783203125 584.321044921875 267.5968017578125 600.856201171875 292.08203125 607.6732177734375 C 315.48193359375 614.18896484375 339.3278503417969 617.1888427734375 363.5472717285156 616.854248046875 C 376.8489685058594 616.6707153320313 390.1428833007813 615.9013061523438 403.4578857421875 615.7378540039063 C 408.7061462402344 615.6734008789063 413.8975830078125 613.7464599609375 418.9922790527344 616.8653564453125 C 420.1997680664063 617.6047973632813 422.487060546875 617.5679931640625 423.7678833007813 616.390625 C 425.7456665039063 614.5711059570313 428.0126953125 614.7764892578125 430.2746887207031 614.7764892578125 C 430.5547180175781 614.7764892578125 430.8349609375 614.7733154296875 431.1142578125 614.7628173828125 C 440.7177429199219 614.399169921875 450.3401184082031 614.2957153320313 459.9358825683594 614.06787109375 C 482.3062744140625 613.53857421875 504.6465759277344 612.008544921875 526.9969482421875 611.74951171875 C 549.5018920898438 611.4893188476563 568.350830078125 604.6610717773438 582.2396240234375 586.4904174804688 C 594.4683227539063 570.4934692382813 601.4476318359375 552.88427734375 597.9384765625 532.2462158203125 C 597.3314819335938 528.6737060546875 595.445556640625 526.6900634765625 592.118896484375 525.6604614257813 C 585.6365356445313 523.65576171875 580.560546875 528.0177001953125 580.0769653320313 536.090087890625 C 578.3101806640625 565.5399780273438 557.8465576171875 584.8694458007813 528.2645263671875 584.7913818359375 C 507.5419616699219 584.738037109375 486.8250427246094 584.5001220703125 466.09912109375 584.0086059570313 C 432.0326538085938 583.2002563476563 397.9328918457031 583.655029296875 363.8486633300781 583.8063354492188 C 346.9942932128906 583.882080078125 330.2213745117188 583.0234985351563 313.6017456054688 580.2781982421875 C 296.326171875 577.4239501953125 281.5479125976563 570.8536987304688 275.5780639648438 552.4239501953125 C 272.9439697265625 544.29150390625 271.2650146484375 535.8899536132813 271.1348876953125 527.4117431640625 C 270.6712646484375 497.2481079101563 270.76904296875 467.0843200683594 270.1775512695313 436.9128723144531 C 269.2802734375 391.1747741699219 269.94287109375 345.4067077636719 269.94287109375 299.6507873535156 L 269.9117431640625 299.6507873535156 C 269.9117431640625 250.9317016601563 269.9050903320313 202.2125549316406 269.9351196289063 153.4934692382813 C 269.936279296875 151.28857421875 270.1419677734375 149.0658569335938 270.4653930664063 146.8832397460938 C 273.4998168945313 126.3619384765625 295.1275634765625 107.2274780273438 318.3028564453125 107.68310546875 C 353.30224609375 108.37353515625 388.3260803222656 107.8876953125 423.3387145996094 107.8865356445313 C 426.2930297851563 107.8865356445313 429.2395629882813 107.4395751953125 432.1605834960938 107.2716064453125 C 438.9286804199219 106.8837280273438 446.6653747558594 104.4263305664063 452.3171081542969 108.1189575195313 C 462.2842712402344 114.63134765625 472.8229370117188 114.1287841796875 483.3591918945313 113.07470703125 C 499.5474243164063 111.4556884765625 515.6943359375 108.9876708984375 531.974853515625 110.2916259765625 C 550.609375 111.7860107421875 566.7618408203125 121.8209228515625 570.3756103515625 142.5089111328125 C 573.0497436523438 157.8109130859375 574.60302734375 173.2463989257813 575.3702392578125 188.6918640136719 C 576.2030029296875 205.4893188476563 576.29638671875 222.3468627929688 576.50439453125 239.1733093261719 C 576.8935546875 270.8047180175781 577.6251831054688 302.4138488769531 578.632568359375 334.0330200195313 C 579.4798583984375 360.6441650390625 581.8292236328125 387.209716796875 581.2755737304688 413.8721008300781 C 581.1732788085938 418.8277893066406 581.68701171875 423.8613891601563 582.5343017578125 428.7515563964844 C 583.189208984375 432.5287170410156 585.2203369140625 435.9597778320313 589.8161010742188 435.7554016113281 C 594.5272216796875 435.5452575683594 596.5764770507813 432.4631042480469 596.7342529296875 427.9698486328125 C 596.7921142578125 426.3053283691406 596.7377319335938 424.6364135742188 596.768798828125 422.9696350097656 C 597.2891845703125 395.7691650390625 596.524169921875 368.5743103027344 597.5338134765625 341.3537902832031 C 598.8157958984375 306.7747802734375 598.5089111328125 272.1367797851563 598.9925537109375 237.5254821777344 C 599.1249389648438 228.1054077148438 599.3072509765625 218.6909484863281 599.7487182617188 209.26318359375 C 600.9340209960938 183.9395446777344 600.1212158203125 158.6149291992188 595.5501708984375 133.571533203125 C 593.1618041992188 120.4866333007813 587.706787109375 108.756103515625 577.689697265625 99.83642578125 C 560.6497802734375 84.66180419921875 540.3680419921875 79.09503173828125 518.669189453125 79.09515380859375 M 518.6690673828125 69.09515380859375 C 518.669189453125 69.09515380859375 518.669189453125 69.09515380859375 518.669189453125 69.09515380859375 C 545.2733154296875 69.09503173828125 566.7545166015625 76.70770263671875 584.3402099609375 92.368408203125 C 595.3173217773438 102.1429443359375 602.3988647460938 115.4017333984375 605.3876342773438 131.7759399414063 C 609.6715698242188 155.246337890625 611.094482421875 180.7455444335938 609.73779296875 209.730712890625 C 609.3013916015625 219.049560546875 609.1224365234375 228.3550109863281 608.9915771484375 237.666015625 C 608.831298828125 249.1395568847656 608.758056640625 260.6168518066406 608.684814453125 272.0939331054688 C 608.5391845703125 294.8992614746094 608.388671875 318.4809265136719 607.5269775390625 341.7242431640625 C 606.9484252929688 357.3218688964844 606.9598999023438 373.2663269042969 606.970947265625 388.6856994628906 C 606.979248046875 400.1780090332031 606.98681640625 411.6689453125 606.7669677734375 423.1609497070313 L 606.7604370117188 425.0967712402344 C 606.76416015625 426.1709289550781 606.7655029296875 427.244873046875 606.728271484375 428.3171691894531 C 606.37158203125 438.4755554199219 599.9080810546875 445.315185546875 590.26171875 445.7454833984375 C 580.8690185546875 445.7604370117188 574.293212890625 439.7568969726563 572.6812744140625 430.4599304199219 C 571.6287841796875 424.3854064941406 571.1697998046875 418.892333984375 571.2777099609375 413.6657104492188 C 571.6351928710938 396.4517822265625 570.7335205078125 378.8116455078125 569.8615112304688 361.7522583007813 C 569.3947143554688 352.6201782226563 568.9285888671875 343.4883117675781 568.6376953125 334.3512573242188 C 567.5966796875 301.6770935058594 566.879150390625 269.6959533691406 566.5051879882813 239.2963256835938 L 566.4253540039063 232.4987182617188 C 566.2623291015625 218.2595520019531 566.0938720703125 203.53564453125 565.3825073242188 189.18701171875 C 564.5811767578125 173.0548095703125 562.9921875 158.34912109375 560.52490234375 144.2304077148438 C 557.1927490234375 125.1544189453125 540.706298828125 121.02392578125 531.175537109375 120.2596435546875 C 518.7092895507813 119.2608032226563 506.4915466308594 120.6256103515625 493.3822021484375 122.06396484375 L 484.3543395996094 123.0250854492188 C 480.5728759765625 123.4033203125 476.7892761230469 123.7058715820313 473.0291137695313 123.7058715820313 C 462.7008056640625 123.7058715820313 454.38134765625 121.4130859375 446.8472595214844 116.4904174804688 C 446.6731262207031 116.3766479492188 446.0864868164063 116.1116943359375 444.4076538085938 116.1116943359375 C 442.5196533203125 116.1116943359375 440.5590209960938 116.3931884765625 438.6152038574219 116.6433715820313 C 436.6223449707031 116.8999633789063 434.6431884765625 117.1456909179688 432.7328186035156 117.2552490234375 C 431.7379455566406 117.3123779296875 430.73828125 117.4082641601563 429.7360229492188 117.502197265625 C 427.6106567382813 117.7012329101563 425.4759521484375 117.8865356445313 423.3387145996094 117.8865356445313 C 413.1366577148438 117.8868408203125 402.9325866699219 117.928466796875 392.7284240722656 117.9700317382813 C 367.8481140136719 118.0713500976563 342.9721374511719 118.1718139648438 318.1056518554688 117.68115234375 C 318.1024169921875 117.68115234375 318.0974731445313 117.68115234375 318.09423828125 117.68115234375 C 300.4208984375 117.68115234375 282.7310791015625 132.296630859375 280.35791015625 148.3460083007813 C 280.1053466796875 150.0498046875 279.93603515625 151.78076171875 279.9351196289063 153.4987182617188 L 279.9114379882813 277.2848510742188 L 279.94287109375 299.6507873535156 C 279.94287109375 313.306640625 279.8839721679688 326.9635620117188 279.824951171875 340.6204833984375 C 279.6889038085938 372.140869140625 279.5482177734375 404.7344055175781 280.1756591796875 436.7167053222656 C 280.50244140625 453.3861083984375 280.61962890625 470.0530090332031 280.7365112304688 486.7188720703125 C 280.8313598632813 500.232421875 280.926025390625 513.7452392578125 281.1337280273438 527.2579956054688 C 281.2391967773438 534.1299438476563 282.57080078125 541.5602416992188 285.0914306640625 549.342529296875 C 289.0025634765625 561.4168701171875 297.73486328125 567.5211181640625 315.2318115234375 570.4119262695313 C 329.07763671875 572.6990356445313 344.324951171875 573.8108520507813 361.8446655273438 573.8108520507813 L 363.8038024902344 573.806396484375 L 383.5945129394531 573.6958618164063 C 411.1820373535156 573.5258178710938 438.7685241699219 573.3572387695313 466.3363342285156 574.011474609375 C 486.9916381835938 574.501220703125 507.63818359375 574.7382202148438 528.290283203125 574.7913818359375 C 552.6793212890625 574.7916259765625 568.640625 559.732666015625 570.0948486328125 535.4912109375 C 570.8114013671875 523.5313110351563 578.6160278320313 515.1771240234375 589.0742797851563 515.1760864257813 C 591.0575561523438 515.1759033203125 593.0760498046875 515.4891357421875 595.0736694335938 516.1069946289063 C 602.0618896484375 518.2698974609375 606.5798950195313 523.406494140625 607.7971801757813 530.5711669921875 C 611.44287109375 552.0123291015625 605.6817626953125 572.29052734375 590.1842651367188 592.5635375976563 C 575.41796875 611.8822021484375 554.7869873046875 621.4288330078125 527.112548828125 621.748779296875 C 514.7194213867188 621.8924560546875 502.3291931152344 622.4319458007813 489.9351196289063 622.9698486328125 C 480.0177917480469 623.4003295898438 470.0980224609375 623.8302612304688 460.1724243164063 624.0650634765625 L 450.7952575683594 624.2614135742188 C 444.36181640625 624.3870239257813 437.9228820800781 624.5121459960938 431.4926452636719 624.755615234375 L 430.274658203125 624.7764892578125 L 429.2809143066406 624.7708740234375 C 426.9324035644531 626.4503784179688 424.0469665527344 627.3597412109375 420.9958190917969 627.3597412109375 C 418.3692016601563 627.3597412109375 415.8704223632813 626.6796875 413.7697143554688 625.3932495117188 C 413.5736389160156 625.273193359375 413.2751770019531 625.0904541015625 412.1521911621094 625.0904541015625 C 411.0342712402344 625.0904541015625 409.9131164550781 625.2322387695313 408.7862548828125 625.354736328125 C 407.0572814941406 625.5425415039063 405.321044921875 625.7156982421875 403.5807189941406 625.737060546875 C 396.8856506347656 625.8193359375 390.1961059570313 626.0573120117188 383.5081787109375 626.29443359375 C 376.9001159667969 626.5286865234375 370.2935791015625 626.7620849609375 363.6852722167969 626.8533325195313 L 359.9094848632813 626.87939453125 C 335.9342651367188 626.87939453125 312.2113647460938 623.65869140625 289.3995971679688 617.3067626953125 C 262.6798706054688 609.8675537109375 245.0430908203125 591.686767578125 236.9794311523438 563.2694091796875 C 230.92529296875 541.9381103515625 229.6680297851563 519.2363891601563 233.1358642578125 493.8677978515625 C 233.1990356445313 493.4042358398438 233.1839599609375 492.9270935058594 233.1922607421875 492.4539184570313 L 233.5064697265625 476.0440979003906 C 233.7879028320313 461.4813842773438 234.0692138671875 446.9190979003906 234.3026733398438 432.3551025390625 C 234.4522094726563 422.9900207519531 234.5510864257813 413.6228637695313 234.6500244140625 404.2557983398438 C 234.8488159179688 385.4369506835938 235.04833984375 366.618408203125 235.6530151367188 347.8128662109375 C 236.1109008789063 333.5598754882813 236.42724609375 319.3031005859375 236.7437133789063 305.0477905273438 C 237.1007080078125 288.9696960449219 237.4578857421875 272.8934631347656 238.0155029296875 256.825927734375 C 238.3113403320313 248.3035583496094 238.2940063476563 239.775390625 238.2789306640625 231.2524719238281 C 238.2572631835938 219.0054016113281 238.23486328125 206.34130859375 239.1428833007813 193.7500305175781 C 239.6279296875 187.0228576660156 239.6129760742188 180.3025512695313 239.5971069335938 173.1876831054688 C 239.5745849609375 163.101318359375 239.5513305664063 152.6715698242188 241.060791015625 142.0966186523438 C 245.8221435546875 108.7443237304688 279.3134765625 79.29949951171875 312.732421875 79.08447265625 C 317.635986328125 79.0531005859375 322.5438842773438 78.97589111328125 327.4527587890625 78.8988037109375 C 333.9220275878906 78.7972412109375 340.3929443359375 78.696044921875 346.8566589355469 78.696044921875 C 356.6854248046875 78.696044921875 364.7896423339844 78.9332275390625 372.3609619140625 79.442626953125 C 384.907470703125 80.28656005859375 397.4166564941406 79.8001708984375 409.9173583984375 79.33233642578125 C 421.9296569824219 78.8826904296875 433.9335632324219 78.44610595703125 445.9524841308594 79.04669189453125 L 453.5680236816406 86.1788330078125 L 447.0014343261719 78.63702392578125 C 452.479736328125 73.8670654296875 459.2283325195313 71.345703125 466.5177307128906 71.345458984375 L 469.9379577636719 71.36968994140625 C 479.7568969726563 71.36968994140625 489.8763427734375 70.68780517578125 499.6626586914063 70.0283203125 L 509.961181640625 69.3607177734375 C 512.884521484375 69.1861572265625 515.7888793945313 69.09515380859375 518.669189453125 69.09515380859375 L 518.6690673828125 69.09515380859375 Z" stroke="none" fill="#f1be9b"/>
      </g>
      <g id="Group_2" data-name="Group 2" transform="translate(36.031 0)">
        <g id="Path_23" data-name="Path 23" transform="translate(0 -18.75)" fill="#d5abfb">
          <path d="M 645.06982421875 414.8537292480469 C 641.9981689453125 414.8537292480469 639.1218872070313 413.6246032714844 636.9708862304688 411.3927612304688 C 634.5267333984375 408.8554077148438 633.29345703125 406.0186157226563 633.3042602539063 402.9601745605469 C 633.3137817382813 400.2753601074219 634.2781982421875 397.6009521484375 636.2526245117188 394.7841186523438 C 638.2045288085938 391.9979858398438 640.6022338867188 390.0595092773438 642.7176513671875 388.3492431640625 C 643.399169921875 387.7983093261719 644.0428466796875 387.2779235839844 644.6527099609375 386.7471618652344 C 657.0298461914063 375.9757690429688 664.4370727539063 361.7543640136719 667.9637451171875 341.9916381835938 C 674.7555541992188 303.9423828125 664.4398803710938 270.9559326171875 636.4273681640625 241.1470336914063 C 636.3180541992188 241.0307159423828 636.20849609375 240.9147644042969 636.09912109375 240.7989807128906 C 635.15966796875 239.8045959472656 634.0948486328125 238.6775054931641 633.1822509765625 237.3243255615234 C 631.968017578125 235.5237731933594 631.256591796875 233.6774444580078 631.0074462890625 231.6798248291016 C 630.630859375 228.6659240722656 630.864013671875 225.9523315429688 631.7005004882813 223.6154479980469 C 632.7828369140625 220.5917358398438 634.8820190429688 218.1993560791016 637.7711791992188 216.6969451904297 C 640.2564697265625 215.4051513671875 642.8551025390625 214.7504119873047 645.4957885742188 214.7504119873047 C 648.8367919921875 214.7504119873047 652.0797729492188 215.7836761474609 655.1347045898438 217.8215637207031 C 659.2237548828125 220.5500030517578 662.8150024414063 224.1318054199219 666.1141967773438 228.77197265625 C 668.9150390625 232.7113037109375 671.1878662109375 236.9382171630859 673.3859252929688 241.0259399414063 C 673.703369140625 241.6162414550781 674.0206298828125 242.2063598632813 674.3392944335938 242.7951507568359 C 679.374267578125 252.0985412597656 683.5345458984375 261.6630859375 686.7045288085938 271.2232055664063 C 689.9925537109375 281.1391906738281 692.3114013671875 291.3398742675781 693.5967407226563 301.5419921875 C 693.9995727539063 304.739501953125 693.895751953125 307.8487854003906 693.7953491210938 310.8557434082031 C 693.751953125 312.1549987792969 693.7109375 313.3829345703125 693.7100219726563 314.5994567871094 C 693.8839721679688 324.9689025878906 693.0718994140625 334.9015502929688 691.2963256835938 344.1240234375 C 690.3489990234375 349.0445556640625 689.1053466796875 353.8822326660156 687.5999755859375 358.502685546875 C 686.0389404296875 363.2941589355469 684.1500244140625 367.9942932128906 681.9859008789063 372.4725646972656 C 674.2852172851563 388.409912109375 665.357666015625 400.9342651367188 654.6931762695313 410.7610168457031 C 651.828369140625 413.4003295898438 648.4108276367188 414.8537292480469 645.06982421875 414.8537292480469 Z" stroke="none"/>
          <path d="M 645.4957885742188 219.7503967285156 C 643.6718139648438 219.7503967285156 641.8502197265625 220.2118835449219 640.0780029296875 221.1329956054688 C 636.281982421875 223.1069946289063 635.4569702148438 226.9630126953125 635.968994140625 231.0610046386719 C 636.323974609375 233.906982421875 638.2310180664063 235.7650146484375 640.0709838867188 237.7229919433594 C 668.0150146484375 267.4590148925781 680.155029296875 302.1470031738281 672.885986328125 342.8699951171875 C 669.5850219726563 361.3680114746094 662.4730224609375 377.8670043945313 647.9349975585938 390.5190124511719 C 645.3309936523438 392.7850036621094 642.4409790039063 394.6650085449219 640.3469848632813 397.6539916992188 C 637.7219848632813 401.3989868164063 637.4500122070313 404.6830139160156 640.5709838867188 407.9230041503906 C 643.3390502929688 410.7950439453125 647.68408203125 410.4200134277344 651.3049926757813 407.083984375 C 662.6090087890625 396.6679992675781 670.8909912109375 383.9419555664063 677.4840087890625 370.2969970703125 C 685.926025390625 352.8280029296875 689.0399780273438 334.0029602050781 688.7100219726563 314.6400146484375 C 688.7100219726563 310.4800109863281 689.1519775390625 306.2630004882813 688.635986328125 302.1669921875 C 686.093017578125 281.9830017089844 679.60400390625 263.0280151367188 669.9420166015625 245.1749877929688 C 665.2860107421875 236.572021484375 660.916015625 227.6900024414063 652.3599853515625 221.9810180664063 C 650.1290893554688 220.4927978515625 647.810302734375 219.7503967285156 645.4957885742188 219.7503967285156 M 645.4957885742188 209.7503967285156 C 649.7807006835938 209.7503967285156 654.0731811523438 211.10302734375 657.9093627929688 213.662109375 C 667.9522705078125 220.3632202148438 673.1785888671875 230.0826416015625 677.7896118164063 238.6578674316406 L 678.7366333007813 240.4152526855469 C 689.2869873046875 259.9097290039063 695.9556884765625 280.2654418945313 698.5575561523438 300.9169921875 C 699.0100708007813 304.5090026855469 698.8944702148438 307.969482421875 698.7925415039063 311.0225830078125 C 698.752197265625 312.2301635742188 698.7100219726563 313.4376831054688 698.7100219726563 314.6400146484375 C 699.0950317382813 337.1473693847656 695.0975341796875 356.8319396972656 686.48779296875 374.6481323242188 C 678.5086059570313 391.161865234375 669.2166748046875 404.1774291992188 658.081298828125 414.4380493164063 C 654.2904052734375 417.9305725097656 649.6697387695313 419.853759765625 645.0697631835938 419.853759765625 C 640.6276245117188 419.853759765625 636.4728393554688 418.0811462402344 633.3707275390625 414.8624877929688 C 627.1007080078125 408.3533325195313 626.648193359375 399.7752685546875 632.1582641601563 391.9141845703125 C 634.5134887695313 388.5523376464844 637.319580078125 386.2837524414063 639.5742797851563 384.4609069824219 L 641.3705444335938 382.9752807617188 C 652.8399658203125 372.9937744140625 659.7261962890625 359.6917419433594 663.04150390625 341.11328125 C 669.536376953125 304.7274780273438 659.638916015625 273.1484375 632.7837524414063 244.5711059570313 C 630.2028198242188 241.8386535644531 626.7845458984375 238.220458984375 626.0458984375 232.2987976074219 C 624.9171752929688 223.2647399902344 628.3499755859375 215.9605102539063 635.46435546875 212.2608947753906 C 638.669921875 210.5947265625 642.04443359375 209.7503967285156 645.4957885742188 209.7503967285156 Z" stroke="none" fill="#d5abfb"/>
        </g>
        <g id="Path_25" data-name="Path 25" transform="translate(0 -18.816)" fill="#d5abfb">
          <path d="M 610.1401977539063 376.8497619628906 C 605.583740234375 376.8497619628906 601.5076293945313 374.7284851074219 598.025146484375 370.5448608398438 C 594.1566772460938 365.8960266113281 593.9479370117188 360.1925048828125 597.4520263671875 354.8961486816406 C 597.8882446289063 354.2367248535156 598.3233032226563 353.5755310058594 598.758544921875 352.9141235351563 C 601.2565307617188 349.1180419921875 603.839599609375 345.1926879882813 606.7206420898438 341.4745178222656 C 621.41162109375 322.5158081054688 617.5376586914063 289.0591125488281 604.2590942382813 271.8111267089844 C 603.310546875 270.5777282714844 602.4642944335938 269.3343505859375 601.7613525390625 268.2804260253906 C 601.6973876953125 268.1845397949219 601.63232421875 268.0878295898438 601.5670776367188 267.9907531738281 C 600.693603515625 266.6915283203125 599.6065063476563 265.0746154785156 599.2245483398438 263.0105895996094 C 598.9415283203125 261.4815673828125 599.1098022460938 259.9394836425781 599.7111206054688 258.551025390625 C 600.2978515625 257.1961364746094 601.2809448242188 255.9984588623047 602.633056640625 254.9912414550781 C 604.5454711914063 253.56787109375 606.720458984375 252.816162109375 608.9244384765625 252.816162109375 C 611.5140380859375 252.816162109375 614.0372314453125 253.8347625732422 616.22119140625 255.7618560791016 C 621.0535888671875 260.0268249511719 625.3411865234375 265.3482055664063 629.3294677734375 272.030517578125 C 633.2755126953125 278.6401977539063 636.3329467773438 285.8218078613281 638.41650390625 293.3753662109375 C 640.3639526367188 300.435546875 641.5286254882813 308.074462890625 641.8782348632813 316.0798645019531 L 641.8890380859375 316.327880859375 L 641.875244140625 316.5757141113281 C 641.34033203125 326.1917419433594 639.9702758789063 334.651123046875 637.6868896484375 342.4371948242188 C 636.4240112304688 346.7435302734375 634.8538208007813 350.8969421386719 633.0199584960938 354.7820434570313 C 631.0819702148438 358.8876647949219 628.7826538085938 362.8361511230469 626.1859130859375 366.5178833007813 C 624.8757934570313 368.375244140625 623.44482421875 370.3324279785156 621.62890625 372.0519714355469 C 619.3529052734375 374.2073364257813 616.8776245117188 375.6084289550781 614.0617065429688 376.3352966308594 C 612.7379760742188 376.6767272949219 611.4188842773438 376.8497619628906 610.1401977539063 376.8497619628906 Z" stroke="none"/>
          <path d="M 610.1401977539063 371.8497619628906 C 610.9860229492188 371.8497619628906 611.8751831054688 371.7356567382813 612.81201171875 371.4939880371094 C 617.177978515625 370.3670043945313 619.6939697265625 367.0469970703125 622.0999755859375 363.635986328125 C 632.1069946289063 349.447998046875 635.9359741210938 333.3210144042969 636.8829956054688 316.2980041503906 C 636.2349853515625 301.4590148925781 632.7160034179688 287.4570007324219 625.0360107421875 274.5929870605469 C 621.6859741210938 268.9800109863281 617.8179931640625 263.8399963378906 612.9130249023438 259.510986328125 C 610.6339111328125 257.4999389648438 608.0209350585938 257.2139587402344 605.6199951171875 259.0010070800781 C 602.77001953125 261.1239929199219 604.5139770507813 263.3970031738281 605.9210205078125 265.5060119628906 C 606.6580200195313 266.6109924316406 607.4119873046875 267.7090148925781 608.2210083007813 268.760986328125 C 622.6690063476563 287.5280151367188 627.1619873046875 323.2579956054688 610.6729736328125 344.5369873046875 C 607.4240112304688 348.7300109863281 604.552978515625 353.2239990234375 601.6220092773438 357.6549987792969 C 599.489013671875 360.8789978027344 599.2650146484375 364.2179870605469 601.8679809570313 367.3460083007813 C 604.1384887695313 370.0736694335938 606.802978515625 371.8497619628906 610.1401977539063 371.8497619628906 M 610.1401977539063 381.8497619628906 C 605.9384765625 381.8497619628906 599.7591552734375 380.4434204101563 594.1822509765625 373.7436218261719 C 588.8814697265625 367.3735656738281 588.5452880859375 359.296875 593.2820434570313 352.1373291015625 L 594.5821533203125 350.1650390625 C 597.208984375 346.173095703125 599.8483276367188 342.1803894042969 602.7682495117188 338.4119873046875 C 616.1055297851563 321.2003784179688 612.4636840820313 290.6647644042969 600.2971801757813 274.8612365722656 C 599.3483276367188 273.62744140625 598.4631958007813 272.3464660644531 597.6016845703125 271.0547485351563 C 589.8779907226563 259.5660400390625 597.2171630859375 252.7908782958984 599.6461181640625 250.9814758300781 C 602.4295043945313 248.9098510742188 605.6367797851563 247.8161468505859 608.9243774414063 247.8161468505859 C 612.7508544921875 247.8161468505859 616.41796875 249.2672729492188 619.529296875 252.0126800537109 C 624.755859375 256.62548828125 629.3656005859375 262.3349304199219 633.6229248046875 269.4679870605469 C 641.771728515625 283.1173400878906 646.1062622070313 298.293212890625 646.8734741210938 315.8616943359375 C 645.6883544921875 338.0507202148438 640.2598266601563 355.2387390136719 630.2718505859375 369.3997192382813 C 627.71875 373.0192260742188 623.4459838867188 379.0768127441406 615.3114013671875 381.1766357421875 C 613.5792236328125 381.6234130859375 611.8399658203125 381.8497619628906 610.1401977539063 381.8497619628906 Z" stroke="none" fill="#d5abfb"/>
        </g>
      </g>
      <g id="Group_3" data-name="Group 3" transform="translate(-36.053 0)">
        <g id="Path_24" data-name="Path 24" transform="translate(0 -24.827)" fill="#d5abfb">
          <path d="M 160.2235870361328 420.9724731445313 C 158.4206237792969 420.9724731445313 156.5955657958984 420.6153564453125 154.7990875244141 419.9110717773438 C 150.4082946777344 418.1914978027344 146.5933837890625 415.5190734863281 143.1378479003906 411.7418212890625 C 140.0019683837891 408.31396484375 137.6145324707031 404.4641723632813 135.6927337646484 401.150390625 C 129.7978515625 390.9843444824219 125.1483535766602 381.4677124023438 121.4784164428711 372.056396484375 C 119.4669418334961 366.898193359375 117.734733581543 361.7052612304688 116.3298873901367 356.6218566894531 C 114.8480606079102 351.2600402832031 113.6784744262695 345.8328857421875 112.8535614013672 340.4910583496094 C 111.8556442260742 334.0252075195313 110.8239669799805 327.3406677246094 111.1776657104492 319.3087158203125 C 111.1560287475586 310.9868469238281 111.8862609863281 302.7274780273438 113.3483505249023 294.7565612792969 C 114.8046798706055 286.8171691894531 117.0236511230469 278.9649047851563 119.9436187744141 271.4179382324219 C 122.8344116210938 263.9464111328125 126.4846801757813 256.5869140625 130.7930603027344 249.5438995361328 C 135.0559997558594 242.5752258300781 140.0704650878906 235.7411041259766 145.6972351074219 229.2313385009766 C 147.5385589599609 227.1010437011719 149.9342346191406 225.0673980712891 152.8177032470703 223.1869354248047 C 155.1825256347656 221.6434020996094 157.7527008056641 220.8269653320313 160.2487945556641 220.8269653320313 C 163.4484405517578 220.8269653320313 166.3896179199219 222.1137237548828 168.7544097900391 224.5480804443359 C 171.1101226806641 226.9734649658203 172.2803192138672 229.8858184814453 172.1387329101563 232.9705810546875 C 172.0139770507813 235.6895751953125 170.8457946777344 238.3884887695313 168.7605285644531 240.7754821777344 C 166.1142730712891 243.8046722412109 163.6448211669922 246.2800140380859 161.2111206054688 248.3430480957031 C 148.5713195800781 259.0558471679688 140.9091491699219 273.6385192871094 137.0975341796875 294.2358093261719 C 133.4397735595703 314.0019836425781 134.9391174316406 333.0673522949219 141.5539398193359 350.9022827148438 C 147.8245849609375 367.8062438964844 156.4437103271484 381.6488342285156 167.9036712646484 393.220703125 C 170.0247650146484 395.3626098632813 173.2301177978516 398.5993347167969 174.1713256835938 403.71044921875 C 174.6599731445313 406.361328125 174.5804443359375 408.8257751464844 173.9347381591797 411.034423828125 C 173.1895599365234 413.5833129882813 171.7253265380859 415.7503967285156 169.5826721191406 417.4755554199219 C 166.6999664306641 419.7960510253906 163.55126953125 420.9724731445313 160.2235870361328 420.9724731445313 Z" stroke="none"/>
          <path d="M 160.248779296875 225.8269348144531 C 158.6867980957031 225.8269348144531 157.0802307128906 226.3755493164063 155.5489959716797 227.375 C 153.343994140625 228.81298828125 151.1940002441406 230.5179748535156 149.4799957275391 232.5009765625 C 127.6670074462891 257.7369995117188 116.0650024414063 286.8840026855469 116.1779937744141 319.4129943847656 C 115.8339996337891 326.9339904785156 116.8079986572266 333.3330078125 117.7949981689453 339.7279968261719 C 121.0680084228516 360.9229736328125 129.3590087890625 380.260009765625 140.0180053710938 398.6419677734375 C 144.0260009765625 405.552978515625 148.6320037841797 412.1259765625 156.6240081787109 415.2560424804688 C 160.3379669189453 416.7119445800781 163.6320037841797 415.8469848632813 166.4469909667969 413.5809936523438 C 169.2030029296875 411.3619995117188 169.9250030517578 408.2560424804688 169.2539978027344 404.615966796875 C 168.6289978027344 401.2219848632813 166.5930023193359 399.0029907226563 164.3509979248047 396.739013671875 C 151.8560028076172 384.1220092773438 143.0019989013672 369.1819763183594 136.8659973144531 352.6409912109375 C 129.7129974365234 333.3550109863281 128.4400024414063 313.5419921875 132.1809997558594 293.3259887695313 C 135.6950073242188 274.3369750976563 142.8390045166016 257.3599853515625 157.9779968261719 244.5289916992188 C 160.4989929199219 242.3919982910156 162.8179931640625 239.9779968261719 164.9949951171875 237.4859924316406 C 167.6210021972656 234.47998046875 168.0419921875 230.9909973144531 165.1679992675781 228.031982421875 C 163.6954193115234 226.5160522460938 162.0000610351563 225.8269348144531 160.248779296875 225.8269348144531 M 160.248779296875 215.8269653320313 C 164.7658081054688 215.8269653320313 169.0602111816406 217.6869201660156 172.3409423828125 221.0642700195313 C 178.7267456054688 227.6389465332031 178.8009643554688 236.8820495605469 172.5260314941406 244.0650024414063 C 169.7138366699219 247.2841186523438 167.0702362060547 249.9310607910156 164.4441986083984 252.1571350097656 C 152.7315979003906 262.0840759277344 145.6044311523438 275.7438354492188 142.0140686035156 295.1456604003906 C 138.5227661132813 314.0121459960938 139.9452362060547 332.1864318847656 146.2418975830078 349.1635437011719 C 152.2597961425781 365.3861999511719 160.507568359375 378.646728515625 171.4563293457031 389.702392578125 C 173.8544921875 392.1240539550781 177.8681030273438 396.177001953125 179.0886383056641 402.8049621582031 C 180.4793090820313 410.3489379882813 178.2170715332031 416.9428100585938 172.7183990478516 421.3700561523438 C 166.9275817871094 426.0315856933594 159.6975860595703 427.2019653320313 152.9741973876953 424.566162109375 C 142.1927032470703 420.3436584472656 136.2177734375 412.0221862792969 131.3674621582031 403.6588134765625 C 118.6937713623047 381.8023681640625 111.0215606689453 361.3898010253906 107.9121398925781 341.2541198730469 C 106.9200744628906 334.8262634277344 105.7957611083984 327.5416259765625 106.1884307861328 318.9560852050781 C 106.0583648681641 284.9875183105469 118.0818328857422 253.5342407226563 141.9144744873047 225.961669921875 C 144.0616607666016 223.4774475097656 146.8111419677734 221.1348266601563 150.0864410400391 218.9988098144531 C 153.2644958496094 216.9244995117188 156.7797088623047 215.8269653320313 160.248779296875 215.8269653320313 Z" stroke="none" fill="#d5abfb"/>
        </g>
        <g id="Path_26" data-name="Path 26" transform="translate(0 -24.98)" fill="#d5abfb">
          <path d="M 196.6137847900391 383.0696411132813 C 194.1612243652344 383.0696411132813 191.7384033203125 382.08203125 189.4126739501953 380.1342163085938 C 181.7509460449219 373.7178649902344 175.7628479003906 365.1315612792969 171.1062927246094 353.8846740722656 C 168.0357666015625 346.46923828125 165.8850708007813 339.0110168457031 164.7139892578125 331.7173767089844 C 163.5370635986328 324.3872985839844 163.3189086914063 317.0355834960938 164.0655364990234 309.8663635253906 C 164.8110504150391 302.7076416015625 166.5370635986328 295.553466796875 169.1956176757813 288.6024780273438 C 171.8338165283203 281.7047424316406 175.4582061767578 274.8309631347656 179.9681701660156 268.172119140625 C 181.3084106445313 266.1944580078125 182.9920501708984 263.9329223632813 185.3232727050781 262.1460571289063 C 188.0642242431641 260.0451049804688 191.2321472167969 258.9798583984375 194.7390441894531 258.9798583984375 C 194.932373046875 258.9798583984375 195.1290893554688 258.9831237792969 195.3253784179688 258.9895629882813 C 195.3350219726563 258.9895629882813 195.3446197509766 258.9895629882813 195.3541717529297 258.9895629882813 C 198.0766754150391 258.9895629882813 200.6893310546875 259.630615234375 202.9096832275391 260.8434143066406 C 205.1450958251953 262.064453125 206.9847259521484 263.8556823730469 208.229736328125 266.0234985351563 C 209.516357421875 268.2637634277344 210.1431274414063 270.8601379394531 210.0422973632813 273.531982421875 C 209.9408569335938 276.2198791503906 209.1348571777344 278.8760375976563 207.6467132568359 281.4266967773438 C 205.8368530273438 284.5306396484375 203.7013244628906 287.3330993652344 201.6360931396484 290.0432434082031 C 200.8105163574219 291.1266479492188 200.0307312011719 292.1499633789063 199.2667846679688 293.1959838867188 C 187.6758575439453 309.0745544433594 185.8600311279297 327.07666015625 193.5529937744141 349.8487243652344 C 195.3770751953125 355.2467346191406 198.4118041992188 360.5069885253906 203.1033935546875 366.4026184082031 C 204.1352233886719 367.6993103027344 205.5557861328125 369.7102966308594 205.9780120849609 372.1933288574219 C 206.2224426269531 373.630859375 206.1120452880859 375.0487670898438 205.6498870849609 376.4076232910156 C 205.2035369873047 377.7200317382813 204.4322509765625 378.94873046875 203.3575134277344 380.0596008300781 C 200.9519348144531 382.5473022460938 198.3623962402344 383.0696411132813 196.6137847900391 383.0696411132813 Z" stroke="none"/>
          <path d="M 194.7390594482422 263.9798583984375 C 189.4522399902344 263.9798583984375 186.5720977783203 267.3399353027344 184.1080169677734 270.9760131835938 C 166.8520050048828 296.4540100097656 163.9730072021484 323.5880126953125 175.7259826660156 351.9719848632813 C 179.5330047607422 361.1669921875 184.7850036621094 369.7369995117188 192.6230163574219 376.3009948730469 C 194.8690032958984 378.1820068359375 197.4500122070313 378.9760131835938 199.7640075683594 376.5830078125 C 202.0840148925781 374.1849975585938 201.0610046386719 371.8659973144531 199.1909790039063 369.5159912109375 C 194.8269805908203 364.0320129394531 191.0769805908203 358.1400146484375 188.8159790039063 351.4490051269531 C 181.5970153808594 330.0799865722656 181.2420043945313 309.4079895019531 195.22900390625 290.2470092773438 C 197.9700164794922 286.4939880371094 200.9980163574219 282.9030151367188 203.3280029296875 278.9070129394531 C 207.697998046875 271.4169311523438 203.3094940185547 263.9210510253906 195.2469787597656 263.989990234375 C 195.0750122070313 263.9831848144531 194.9061584472656 263.9798583984375 194.7390594482422 263.9798583984375 M 194.7390594482422 253.9798278808594 L 195.64208984375 253.9977722167969 C 202.6947784423828 254.0073547363281 209.1326751708984 257.5563659667969 212.5651092529297 263.5323791503906 C 216.0785675048828 269.6494140625 215.8543548583984 277.2808227539063 211.9653778076172 283.9464111328125 C 210.0008087158203 287.3157348632813 207.7702026367188 290.242919921875 205.6130676269531 293.07373046875 L 203.3045654296875 296.1449279785156 C 192.7567596435547 310.5945129394531 191.1628875732422 327.1513977050781 198.2899780273438 348.2484741210938 C 199.9229278564453 353.0808715820313 202.6957092285156 357.8604431152344 207.0157928466797 363.2892456054688 C 213.51220703125 371.4530944824219 211.2418823242188 379.1010437011719 206.9510345458984 383.5361938476563 C 204.1246337890625 386.4590454101563 200.4528656005859 388.0696411132813 196.6137847900391 388.0696411132813 C 194.0986328125 388.0696411132813 190.2506561279297 387.3579711914063 186.2023162841797 383.9674377441406 C 177.9080047607422 377.0213317871094 171.4588623046875 367.8067626953125 166.4865875244141 355.7973937988281 C 153.4192047119141 324.2390441894531 156.5621795654297 293.8141784667969 175.8283386230469 265.3682556152344 C 177.940185546875 262.2519226074219 183.5460662841797 253.9798278808594 194.7390594482422 253.9798278808594 Z" stroke="none" fill="#d5abfb"/>
        </g>
      </g>
    </g>
    <g id="Path_27" data-name="Path 27" transform="translate(-42.28 -19)" fill="#f1be9b">
      <path d="M 400.842529296875 504.9797058105469 C 397.0343017578125 504.9797058105469 393.3992309570313 504.2758178710938 390.0374755859375 502.8874206542969 C 386.7890930175781 501.5458374023438 383.884765625 499.6050415039063 381.4051513671875 497.1188659667969 C 378.8042297363281 494.5110473632813 376.7760620117188 491.41552734375 375.3770446777344 487.9183654785156 C 373.9750366210938 484.4137878417969 373.2695007324219 480.6624450683594 373.280029296875 476.7684936523438 C 373.299072265625 469.8510437011719 376.4873352050781 462.88525390625 382.0272521972656 457.6570129394531 C 387.7904968261719 452.2180480957031 395.4269104003906 449.22265625 403.52978515625 449.22265625 C 403.5833435058594 449.22265625 403.6366271972656 449.2228088378906 403.6902770996094 449.2230529785156 C 407.9276428222656 449.2435302734375 411.9032897949219 450.0019836425781 415.5066833496094 451.4773254394531 C 418.9390563964844 452.8826599121094 421.9650573730469 454.9046936035156 424.5006103515625 457.4872131347656 C 426.970703125 460.0030517578125 428.8819885253906 462.948974609375 430.1813659667969 466.2430725097656 C 431.4524841308594 469.4656066894531 432.0733032226563 472.8528137207031 432.0265502929688 476.3106079101563 C 431.9194030761719 484.2179260253906 428.7435302734375 491.4981384277344 423.0839538574219 496.8102722167969 C 417.4854431152344 502.0650939941406 409.8899841308594 504.9616394042969 401.6947937011719 504.968017578125 C 401.4118041992188 504.9757690429688 401.1260986328125 504.9797058105469 400.8443298339844 504.9797058105469 C 400.8438720703125 504.9797058105469 400.843017578125 504.9797058105469 400.842529296875 504.9797058105469 Z" stroke="none"/>
      <path d="M 400.8440551757813 499.9797058105469 C 401.1019592285156 499.9797058105469 401.3629760742188 499.9757995605469 401.6239929199219 499.9679870605469 C 415.9855041503906 499.99951171875 426.8439636230469 489.7479858398438 427.0270080566406 476.2430114746094 C 427.1759948730469 465.2260131835938 418.7739868164063 454.2959899902344 403.6659851074219 454.2229919433594 C 389.05029296875 454.1565551757813 378.3110046386719 465.5230102539063 378.2799987792969 476.7820129394531 C 378.2456665039063 489.48974609375 387.4260864257813 499.9804992675781 400.8440551757813 499.9797058105469 M 400.8446350097656 509.9797058105469 C 392.0271301269531 509.980224609375 383.8661193847656 506.6667785644531 377.8649597167969 500.6497192382813 C 371.6592102050781 494.4275512695313 368.2552185058594 485.9415588378906 368.280029296875 476.7550048828125 C 368.32861328125 459.1204223632813 384.4710388183594 444.22265625 403.52978515625 444.22265625 C 413.2846069335938 444.2693481445313 421.9337158203125 447.7359313964844 428.0684204101563 453.9842529296875 C 433.8736572265625 459.8970031738281 437.1385803222656 468.0592956542969 437.0260925292969 476.3782348632813 C 436.7665710449219 495.5276794433594 421.5659790039063 509.968017578125 401.6681823730469 509.968017578125 L 400.8440551757813 499.9797058105469 L 400.8446350097656 509.9797058105469 Z" stroke="none" fill="#f1be9b"/>
    </g>
    <g id="Group_5" data-name="Group 5" transform="translate(16 -58)">
      <g id="Path_22" data-name="Path 22" transform="translate(-42.566 14.864)" fill="#fdb4bb">
        <path d="M 454.7138366699219 392.0593872070313 C 453.85205078125 392.0593872070313 452.97314453125 392.0469665527344 452.0993041992188 392.0224609375 C 451.4877624511719 392.0343627929688 450.8686218261719 392.0404052734375 450.2569580078125 392.0404052734375 C 441.2581176757813 392.04052734375 432.2697448730469 390.77587890625 422.7781677246094 388.1742248535156 C 415.0696716308594 386.0613098144531 407.0812683105469 383.0922241210938 397.63818359375 378.8303527832031 C 386.4338989257813 373.7735290527344 375.8321533203125 367.6604309082031 366.1274108886719 360.660888671875 C 356.3283996582031 353.5933837890625 347.190673828125 345.4395141601563 338.9680480957031 336.4256896972656 C 313.0393371582031 308.003662109375 297.915283203125 278.9204406738281 292.7317810058594 247.5142364501953 C 290.8053588867188 235.8401641845703 291.2711791992188 224.5054779052734 294.1162414550781 213.8248901367188 C 297.00341796875 202.986083984375 302.3317260742188 192.8598022460938 309.9531860351563 183.7273559570313 C 313.0997924804688 179.9574279785156 316.9621276855469 177.0303649902344 321.4330444335938 175.0272064208984 C 325.7141723632813 173.1090698242188 330.3235473632813 172.1365203857422 335.1331481933594 172.1365203857422 C 337.7347717285156 172.1365203857422 340.3541870117188 172.4299163818359 342.9185180664063 173.0086364746094 C 345.5115966796875 173.5938262939453 348.05419921875 174.4722290039063 350.4757080078125 175.6194458007813 C 359.0191040039063 179.6660461425781 365.7870788574219 184.2991333007813 371.1659851074219 189.7832641601563 C 374.1683349609375 192.8443298339844 376.7510681152344 196.2112579345703 378.8424682617188 199.7905120849609 C 381.0472717285156 203.5638275146484 382.7746276855469 207.6896362304688 383.9765319824219 212.0532989501953 C 386.479736328125 221.1397399902344 386.8760375976563 229.9713287353516 385.1542663574219 238.3025512695313 C 383.4099731445313 246.7429809570313 379.4846496582031 254.7073822021484 373.4873962402344 261.9745178222656 C 372.1703491210938 263.5704650878906 372.0098876953125 264.1825561523438 371.9920959472656 264.3321533203125 C 371.9768676757813 264.4601135253906 372.1165771484375 265.0356140136719 372.9351806640625 266.1472778320313 C 386.3549194335938 284.374267578125 401.0894470214844 299.2251281738281 417.9809265136719 311.5487670898438 C 418.5010986328125 311.9283447265625 419.8557739257813 312.9168701171875 420.7178649902344 313.4227905273438 C 421.4495849609375 312.8368225097656 422.5938110351563 311.7466125488281 423.3468933105469 311.029052734375 C 428.6353759765625 305.9895935058594 433.2803039550781 302.4590759277344 437.9645080566406 299.91845703125 C 440.8378295898438 298.3600463867188 443.7801208496094 297.1609802246094 446.7095947265625 296.3545837402344 C 449.9180908203125 295.4713439941406 453.2347106933594 295.0235290527344 456.5673217773438 295.0235290527344 C 457.4620666503906 295.0235290527344 458.3744812011719 295.0557250976563 459.2792358398438 295.1192626953125 C 464.8989868164063 295.5137023925781 470.4874267578125 296.9047546386719 475.8890991210938 299.2537841796875 C 480.7233581542969 301.3560485839844 485.52880859375 304.2803344726563 490.1719360351563 307.9453125 C 496.3687744140625 312.8376770019531 501.1540222167969 317.7431335449219 504.8014526367188 322.9423217773438 C 506.8980102539063 325.9308166503906 508.6510009765625 329.078369140625 510.0116577148438 332.2974548339844 C 511.4642639160156 335.7340698242188 512.5205688476563 339.3708190917969 513.1512451171875 343.1066589355469 C 514.28173828125 349.8011169433594 513.670654296875 356.1337585449219 511.3349914550781 361.9285888671875 C 509.1357116699219 367.3849487304688 505.4293518066406 372.3029479980469 500.3189392089844 376.5459289550781 C 487.9200744628906 386.8399353027344 472.5763244628906 392.0593872070313 454.7138366699219 392.0593872070313 Z" stroke="none"/>
        <path d="M 454.7139587402344 387.0593872070313 C 470.0438842773438 387.0593872070313 484.7447814941406 382.9775085449219 497.125 372.6990051269531 C 505.8500366210938 365.4549865722656 510.2279968261719 355.8240051269531 508.2210388183594 343.9390258789063 C 505.8800048828125 330.0719604492188 497.5769958496094 320.1619873046875 487.0740051269531 311.8700256347656 C 478.8710021972656 305.3949890136719 469.5150146484375 300.8500061035156 458.9289855957031 300.1070251464844 C 445.7572021484375 299.1820068359375 435.8009948730469 306.0679321289063 426.7959899902344 314.6489868164063 C 421.5200805664063 319.6759643554688 421.0240783691406 319.9590454101563 415.0339965820313 315.5880126953125 C 397.18798828125 302.5679626464844 382.0069885253906 286.9020080566406 368.9089965820313 269.1119995117188 C 365.8699951171875 264.9849853515625 366.6889953613281 262.3570251464844 369.6310424804688 258.7919616699219 C 380.6919860839844 245.3890075683594 383.7330017089844 229.9950103759766 379.156005859375 213.3810119628906 C 374.6799926757813 197.1300201416016 363.0799865722656 187.1220092773438 348.3349914550781 180.1380157470703 C 336.4450378417969 174.5050201416016 322.2329711914063 176.8179779052734 313.7919921875 186.9310150146484 C 299.321044921875 204.2710113525391 294.0539855957031 224.8170166015625 297.6650390625 246.7000122070313 C 303.18798828125 280.1629638671875 320.0429992675781 308.261962890625 342.6619873046875 333.0559997558594 C 358.7919921875 350.7380065917969 377.8949890136719 364.4340209960938 399.6949768066406 374.2730102539063 C 416.1600036621094 381.7040100097656 433.1076049804688 387.4162902832031 452.1210021972656 387.0210266113281 C 452.9874877929688 387.0464782714844 453.8511657714844 387.0593872070313 454.7139587402344 387.0593872070313 M 454.7139587402344 397.0593872070313 L 451.8272705078125 397.0166931152344 L 450.2573852539063 397.0404357910156 C 428.608642578125 397.0407104492188 409.665771484375 389.7443237304688 395.5813293457031 383.3876953125 C 372.4120788574219 372.9307556152344 352.121826171875 358.26416015625 335.2741394042969 339.79541015625 C 308.6737670898438 310.6371765136719 293.144287109375 280.718017578125 287.7985229492188 248.3284301757813 C 283.6652526855469 223.2807464599609 289.9987487792969 199.8343658447266 306.1143493652344 180.5237121582031 C 313.2156982421875 172.0157470703125 323.7924499511719 167.1365203857422 335.1331481933594 167.1365203857422 C 341.0964660644531 167.1365203857422 347.1420593261719 168.5073547363281 352.6164245605469 171.1009063720703 C 372.1689147949219 180.3619689941406 384.00390625 193.3234405517578 388.7969970703125 210.7255859375 C 394.1935729980469 230.3146362304688 390.4327697753906 248.8692626953125 377.9255676269531 264.4424133300781 C 390.7856750488281 281.6477966308594 404.5870056152344 295.4858703613281 420.286865234375 307.0398254394531 C 428.7525329589844 299.03515625 440.4849243164063 290.0235595703125 456.5672607421875 290.0235595703125 C 457.5733642578125 290.0235595703125 458.5933227539063 290.0588073730469 459.6294860839844 290.131591796875 C 471.3148803710938 290.9517517089844 482.6332702636719 295.624755859375 493.2698364257813 304.0207214355469 C 507.7172546386719 315.4267578125 515.6011352539063 327.5819396972656 518.0814819335938 342.2743530273438 C 520.5667724609375 356.9918212890625 515.3928833007813 370.5293579101563 503.5128784179688 380.3928527832031 C 490.1924133300781 391.4519653320313 473.7741088867188 397.0593872070313 454.7139587402344 397.0593872070313 Z" stroke="none" fill="#fdb4bb"/>
      </g>
      <g id="Path_28" data-name="Path 28" transform="translate(-42.219 15.589)" fill="#fffdf4">
        <path d="M 453.6395568847656 368.5252685546875 C 442.6552124023438 368.5253295898438 432.2022705078125 366.8883972167969 421.6834716796875 363.5208435058594 C 412.6720886230469 360.6359252929688 403.5178833007813 356.4233703613281 393.69775390625 350.6423950195313 C 386.0842895507813 346.1604309082031 378.8214111328125 341.1998596191406 372.1109313964844 335.8984375 C 365.3721923828125 330.5746765136719 359.0017395019531 324.7581176757813 353.1766662597656 318.6103820800781 C 347.3299560546875 312.4398803710938 341.8690795898438 305.7631530761719 336.9457397460938 298.7656555175781 C 332.0068359375 291.7460632324219 327.4707641601563 284.2073059082031 323.4634399414063 276.3588256835938 C 317.03857421875 263.7739562988281 313.7600708007813 249.9702453613281 313.718994140625 235.3310241699219 C 313.7017822265625 228.9935913085938 314.575439453125 222.8116912841797 316.3157653808594 216.9568328857422 C 318.0904541015625 210.9862213134766 320.7853088378906 205.2936859130859 324.325439453125 200.0374603271484 C 326.0807800292969 197.4317169189453 328.1455688476563 195.4129486083984 330.4625549316406 194.0370025634766 C 332.8385314941406 192.6260223388672 335.4357604980469 191.9106140136719 338.1820983886719 191.9106140136719 C 340.4172973632813 191.9106140136719 342.7298889160156 192.3906860351563 345.0556640625 193.3375244140625 C 347.755615234375 194.4371032714844 350.5938720703125 196.2627868652344 353.2638549804688 198.6173858642578 C 355.9004516601563 200.9425201416016 358.3392639160156 203.7527923583984 360.3166809082031 206.7443084716797 C 362.4583129882813 209.9843139648438 364.0079040527344 213.317138671875 364.9223022460938 216.6502227783203 C 365.9518432617188 220.4029083251953 366.1244506835938 223.9967651367188 365.4352722167969 227.3319091796875 C 364.4009094238281 232.3399810791016 362.4894409179688 236.7821960449219 359.7540283203125 240.5349578857422 C 356.9566955566406 244.3726654052734 353.2613830566406 247.5400238037109 348.7708129882813 249.9490203857422 C 343.8397216796875 252.5942687988281 341.2738342285156 254.8868560791016 340.4510498046875 257.3825988769531 C 339.6261291503906 259.8848876953125 340.3701171875 263.172607421875 342.8633422851563 268.0427551269531 C 355.7075805664063 293.1330871582031 373.3659057617188 314.3092956542969 395.3478698730469 330.9831848144531 C 401.6390686035156 335.7556457519531 408.5556945800781 340.3419189453125 417.1149291992188 345.4165344238281 C 420.6890258789063 347.5357666015625 423.8084716796875 348.56591796875 426.6516723632813 348.56591796875 C 430.3089294433594 348.56591796875 433.7957153320313 346.8748474121094 437.6247863769531 343.2439270019531 C 440.1460266113281 340.8539428710938 442.6410827636719 338.32080078125 445.0539855957031 335.8710327148438 C 447.0031433105469 333.89208984375 449.0186462402344 331.8457946777344 451.0536804199219 329.8681335449219 C 452.9177551269531 328.0569458007813 454.4967651367188 326.8231201171875 456.0230712890625 325.9850769042969 C 457.7781372070313 325.0214233398438 459.5277404785156 324.5530090332031 461.3718566894531 324.5530090332031 C 463.7085876464844 324.5530090332031 466.1534729003906 325.2631225585938 469.546875 326.9274291992188 C 469.8990173339844 327.10009765625 470.2521057128906 327.2722778320313 470.6053771972656 327.4445190429688 C 474.8557434082031 329.5171203613281 479.2507629394531 331.6602783203125 482.9092712402344 335.0728454589844 C 485.8874816894531 337.8503112792969 487.995361328125 340.262939453125 489.3531799316406 342.448486328125 C 490.8834838867188 344.91162109375 491.5434265136719 347.1999816894531 491.3706665039063 349.4442749023438 C 491.1885681152344 351.8104248046875 490.0754089355469 354.0581665039063 487.9676208496094 356.3159484863281 C 486.3368225097656 358.0627746582031 484.0671081542969 359.8900451660156 480.6082153320313 362.24072265625 C 476.5938110351563 364.9688720703125 473.0794067382813 366.5809631347656 469.2130126953125 367.4678649902344 C 465.4233703613281 368.337158203125 461.35595703125 368.5117492675781 456.0216064453125 368.5117492675781 C 455.8162536621094 368.5117492675781 455.6102600097656 368.5115051269531 455.4009094238281 368.5110168457031 C 454.8153381347656 368.5204772949219 454.2228698730469 368.5252380371094 453.6395568847656 368.5252685546875 Z" stroke="none"/>
        <path d="M 453.6396484375 366.0252685546875 C 454.2182312011719 366.0252685546875 454.8000793457031 366.0205383300781 455.3840026855469 366.010986328125 C 466.1990356445313 366.03759765625 471.4410095214844 365.447998046875 479.2030029296875 360.1730041503906 C 490.3949890136719 352.5670166015625 492.968994140625 347.8730163574219 481.2040100097656 336.9010009765625 C 477.5289916992188 333.4729919433594 472.9330139160156 331.3720092773438 468.4460144042969 329.1719970703125 C 461.6360168457031 325.8320007324219 458.3329772949219 326.281005859375 452.7959899902344 331.6610107421875 C 448.2579956054688 336.0710144042969 443.9360046386719 340.7059936523438 439.3450012207031 345.0580139160156 C 431.7510070800781 352.259033203125 424.7479553222656 352.8489685058594 415.8399963378906 347.5670166015625 C 408.2550048828125 343.0700073242188 400.8789978027344 338.3170166015625 393.8370056152344 332.9750061035156 C 371.1759948730469 315.7860107421875 353.5639953613281 294.4320068359375 340.6380004882813 269.1820068359375 C 335.1730041503906 258.5069885253906 336.9559936523438 253.4499969482422 347.5889892578125 247.7460021972656 C 356.0239868164063 243.2210083007813 361.0740051269531 236.0879974365234 362.9869995117188 226.8260040283203 C 365.5400085449219 214.4710083007813 354.0429992675781 199.6970062255859 344.1130065917969 195.6529998779297 C 337.1319274902344 192.8109741210938 330.8080139160156 194.8889923095703 326.3989868164063 201.4340057373047 C 319.5069885253906 211.6670074462891 316.1860046386719 223.197998046875 316.218994140625 235.3240051269531 C 316.2579956054688 249.2270050048828 319.3099975585938 262.7250061035156 325.6900024414063 275.2219848632813 C 341.6090087890625 306.3999938964844 364.8160095214844 330.739013671875 394.9660034179688 348.4880065917969 C 412.5564880371094 358.8432312011719 431.0969543457031 366.025390625 453.6396484375 366.0252685546875 M 453.6396789550781 371.0252685546875 C 453.6396484375 371.0252685546875 453.6396484375 371.0252685546875 453.6396484375 371.0252685546875 C 447.9095764160156 371.0252990722656 442.1900634765625 370.5718994140625 436.6400146484375 369.6776733398438 C 431.3974304199219 368.8329772949219 426.10888671875 367.5625915527344 420.9212646484375 365.9018249511719 C 411.7310791015625 362.9596557617188 402.4113159179688 358.6729736328125 392.4294738769531 352.7968139648438 C 384.7182312011719 348.2572937011719 377.3606872558594 343.2318725585938 370.5611877441406 337.860107421875 C 363.7287292480469 332.4623107910156 357.2691345214844 326.5643310546875 351.3619079589844 320.3298950195313 C 345.4321594238281 314.0717468261719 339.8939208984375 307.3004760742188 334.901123046875 300.2042236328125 C 329.8948059082031 293.0887756347656 325.2974853515625 285.4485168457031 321.2368774414063 277.4956665039063 C 314.6316528320313 264.5575561523438 311.2611694335938 250.3737335205078 311.2190246582031 235.3380279541016 C 311.2011108398438 228.7567596435547 312.1096496582031 222.3329162597656 313.9193420410156 216.2445220947266 C 315.7664489746094 210.0305023193359 318.5698852539063 204.1077575683594 322.2518920898438 198.6408996582031 C 324.2156372070313 195.7257843017578 326.5485534667969 193.4537353515625 329.18603515625 191.887451171875 C 331.95361328125 190.2439422607422 334.9803161621094 189.4106140136719 338.1820983886719 189.4106140136719 C 340.7420043945313 189.4106140136719 343.3717651367188 189.9527587890625 345.998291015625 191.0220489501953 C 351.9300537109375 193.4377593994141 358.0621643066406 198.7998199462891 362.4022521972656 205.3657684326172 C 367.3764038085938 212.8909149169922 369.3230285644531 220.8716583251953 367.883544921875 227.8378143310547 C 366.776611328125 233.1971588134766 364.7211608886719 237.9647064208984 361.7742919921875 242.0075531005859 C 358.7540588378906 246.1510467529297 354.7766723632813 249.5641632080078 349.9526062011719 252.1520538330078 C 345.7468872070313 254.4081878662109 343.41552734375 256.3751525878906 342.8253479003906 258.1653442382813 C 342.2427978515625 259.9324340820313 342.983154296875 262.7906799316406 345.0886840820313 266.9035034179688 C 357.7604370117188 291.6568908691406 375.1783752441406 312.5462341308594 396.8587036132813 328.9913635253906 C 403.0723876953125 333.7050170898438 409.9140319824219 338.2408752441406 418.3899230957031 343.2660827636719 C 421.5672912597656 345.150146484375 424.2696838378906 346.06591796875 426.6516418457031 346.06591796875 C 428.5249938964844 346.06591796875 431.5223388671875 345.5853576660156 435.9046325683594 341.4298400878906 C 438.39501953125 339.069091796875 440.8747863769531 336.5514221191406 443.2729187011719 334.1166687011719 C 445.2314758300781 332.128173828125 447.2567443847656 330.0719604492188 449.3113708496094 328.0752563476563 C 451.3410339355469 326.1031494140625 453.09130859375 324.7427368164063 454.8198547363281 323.7936706542969 C 456.9530944824219 322.6223754882813 459.0962829589844 322.0530090332031 461.3718566894531 322.0530090332031 C 464.07861328125 322.0530090332031 466.9394226074219 322.8640747070313 470.6477661132813 324.682861328125 C 470.9979858398438 324.8545837402344 471.3494567871094 325.0259704589844 471.7011108398438 325.1974487304688 C 476.11669921875 327.3506164550781 480.6826171875 329.5771179199219 484.6145324707031 333.2447204589844 C 487.7561340332031 336.174560546875 490.0008850097656 338.7537231445313 491.4767150878906 341.1291809082031 C 493.2976379394531 344.0601196289063 494.0783081054688 346.8427734375 493.8633117675781 349.6361999511719 C 493.6359252929688 352.5901794433594 492.3052062988281 355.3332214355469 489.7950439453125 358.0220031738281 C 488.0322570800781 359.9102478027344 485.6322937011719 361.8490600585938 482.0133972167969 364.3084106445313 C 477.7301025390625 367.2193298339844 473.9547119140625 368.9452819824219 469.77197265625 369.9047241210938 C 465.7529602050781 370.8265991210938 461.5307922363281 371.0117797851563 456.0210571289063 371.0117797851563 C 455.822265625 371.0117797851563 455.6216735839844 371.0115661621094 455.4190979003906 371.0110778808594 C 454.8270568847656 371.0204772949219 454.2286376953125 371.0252685546875 453.6396484375 371.0252685546875 L 453.6396789550781 371.0252685546875 Z" stroke="none" fill="#fffdf4"/>
      </g>
    </g>
  </g>
</svg>
