<svg id="Layer_1" data-name="Layer 1" xmlns="http://www.w3.org/2000/svg" viewBox="0 0 398.48 403.31"><path d="M193.24,393.31c-.68-1.14-2-1.06-3-1.27-18-3.68-29.55-14.47-35.34-31.79-2.21-6.62-3.89-13.38-5.81-20.07-.14-.48-.27-1-.38-1.44-2.07-9.48-8.67-8.15-14-3.26-7.6,6.93-15.47,13.33-25.57,16.21-17.92,5.14-32.58-.45-44.74-13.79-5.78-6.33-9.43-14-12.51-21.95-3.7-9.6-2.57-18.76,1.7-27.83,3.31-7,7.86-13.29,11.67-20a46.44,46.44,0,0,0,3.62-7.31c1.56-4.4.77-6-3.39-8.09-4.87-2.47-10.33-2.56-15.51-3.81-14.22-3.44-27-9.18-34.34-22.89-13.18-24.66-2.5-51.67,24-60.77,8.63-3,17.72-3.91,26.52-6.09a33.56,33.56,0,0,0,8.42-3c5.13-2.86,6.47-6.91,4.13-12.31-2.52-5.81-7.09-10.21-10.65-15.3-5-7.21-9.4-14.71-10.57-23.62-.52-4-.31-7.87-2.3-11.76-1.56-3-.28-6.9,1.44-10A73,73,0,0,1,90.43,51c8.46-4,17.16-2.28,25,2.45,5.65,3.4,11,7.37,16.44,11a39.93,39.93,0,0,0,11.06,5.33c5.06,1.48,7.93.06,9.74-5a34.94,34.94,0,0,0,1.75-11.39c.14-6.63.93-13.17,3.73-19.28,5.14-11.21,14.24-17.76,25.7-21.18,17.33-5.18,34.06-3.78,49.51,6,11.17,7.1,17.36,17.23,16.74,30.92-.26,5.66.34,11.21,3,16.35,3.27,6.32,9.32,7.89,15.3,4,8.47-5.48,16.73-11.31,26.19-15.07,11.82-4.71,22.74-4.14,32.75,4.58,5.63,4.9,11.58,9.37,16.55,15.06,10.39,11.91,13.52,29.31,2.85,44.79-4,5.85-7.88,11.81-11.81,17.72a9.12,9.12,0,0,0-.6,1c-6,10.35-.71,16.6,8.24,17.95a115.17,115.17,0,0,1,20.34,4.61c8.3,2.86,14.46,7.95,18,16.24,4.72,11.13,7.9,22.62,7.54,34.75-.45,15.06-6.31,27-20.95,33.31-5.8,2.49-12.14,2.5-18.23,3.65-5.64,1.07-10.73,2.47-13.38,8.61-1.77,4.09-6.92,4.9-11,2.61a7.82,7.82,0,0,1-3.65-10.45h0v-.07c4.21-9.8,12.62-13.62,22.28-15.56,4.5-.91,9.07-1.52,13.59-2.36q19.69-3.66,17.08-23.44c-.88-6.67-2.81-13.12-4.28-19.67-2.52-11.19-10.09-15.55-20.59-16.73-8.43-.95-16.63-2.21-23.58-8.09-8.83-7.45-11.29-16.42-6.48-26.94,3.81-8.32,9.58-15.45,14.07-23.36,7.75-13.65,6.13-23.46-5.84-33.59-2.85-2.41-5.8-4.7-8.78-7-7.49-5.68-14.37-6-22.5-1.37-6.62,3.79-12.36,8.84-18.83,12.83-11.14,6.87-23,6.45-32.24-1.42-5.56-4.78-8.62-11.19-10.56-18.14a48.11,48.11,0,0,1-1.73-12.91c0-11-4.78-17.77-15.33-21.07-9.93-3.1-19.82-2.42-29.7.89s-13.33,10.85-14,20.41c-.36,5.08-.69,10.19-1.49,15.21-2.92,18.42-17.71,27.66-35.64,22.53-7.8-2.24-14.62-6.25-21.11-11a55,55,0,0,0-9.83-6.1c-4.94-2.17-9.43-1.52-13.46,2.19A70.42,70.42,0,0,0,80.64,88.93c-3,4.6-5.84,9.31-11.18,11.73-2.18,1-1.22,3.13-.91,4.65,1.32,6.37,4.7,11.75,8.7,16.75,4.66,5.83,9.76,11.3,12.53,18.45,4.79,12.36,1.34,21.41-10.59,27.11-7.15,3.41-14.9,4.76-22.53,6.52-7.42,1.67-14.89,3.39-21.22,7.79-14.41,10-17.83,36.72,4.26,47.52,7.75,3.79,16.18,4.76,24.39,6.69,4.78,1.12,9.4,2.64,13.26,5.74,8.48,6.81,10.39,15.82,5.76,26.11-2.88,6.39-7,12.08-10.42,18.14-3.71,6.52-7.77,13.23-5.81,21,2.75,11,13.16,27.48,26.18,29a24.34,24.34,0,0,0,12.69-2.26c6.74-2.94,12-7.89,17.39-12.72,8.41-7.49,18.34-9.79,29.19-6.24,8.11,2.65,11.41,9.69,14,16.95,2.48,7,4.19,14.33,6.61,21.39,5.81,16.92,22.54,24.4,39.14,17.75a22.11,22.11,0,0,0,11.68-11c3.19-6.25,5-13,7-19.69a104.43,104.43,0,0,1,5-14.06c5.17-11.47,14.72-15.91,26.91-12.46a55.85,55.85,0,0,1,22.2,12.66c10.8,9.7,17.47,8.77,27.56-2.11a66.14,66.14,0,0,1,9.2-8.74c4.13-3,8.39-3.19,12.16-.59,4.34,3,6.31,7.93,4.95,12.68-2,6.95-6.76,11.82-12.29,16-8.65,6.56-17.8,11.73-29.23,11.64a34.15,34.15,0,0,1-21-7.51c-5.64-4.29-10.83-9.17-17.28-12.38-2.29-1.14-3.4-1.09-4.31,1.57-2.89,8.48-5.92,16.92-9,25.32-6.16,16.59-17.48,27.22-35.29,30.28a4.24,4.24,0,0,0-1.2.7Z" transform="translate(0 0)" fill="#a2b5cc" stroke="#a2b5cc" stroke-miterlimit="10" stroke-width="20"/><path d="M154.78,200.86c.07-20.27,13.94-35,38-38.07,25-3.21,46.84,13.06,50.66,38.08,1.51,9.88-3,17.84-9.64,24.62-14.47,14.72-40.59,19.86-59.06,11.26C160.59,230.18,154.52,218.38,154.78,200.86Z" transform="translate(0 0)" fill="#a2b5cc" stroke="#a2b5cc" stroke-miterlimit="10" stroke-width="20"/></svg>