<svg id="Layer_1" data-name="Layer 1" xmlns="http://www.w3.org/2000/svg"
    viewBox="0 0 397.41 403.17">
    <path
        d="M222.17,439.58c-.48-.95-1.49-.85-2.28-1.06A31.08,31.08,0,0,1,204.52,429c-12.56-13.84-25.43-27.4-37.68-41.52a223.12,223.12,0,0,1-36.71-59.13,6,6,0,0,0-5.08-4.12c-13.57-2.37-26.19-7.1-36.71-16.34-9.4-8.26-15.41-18.41-15-31.24.43-14.14-2.17-28-2.74-42.06-.56-13.61.38-27,11.08-37.44,5.12-5,11.49-7.36,18.22-8.9,19.46-4.46,36.63-13.09,49.76-28.38a166,166,0,0,0,20.86-31.4c6.93-13.25,12.39-27.24,20.06-40.1,5.82-9.75,11.89-19.38,21.51-26,16-10.94,35.84-5.8,47.65,6.42,2.79,2.88,3.73,7,5.16,10.71,5.13,13.33,7.43,27.33,9.64,41.34,4.2,26.54,5.15,53.28,4.34,80.07q-1,32.1-3.35,64.14c-.82,10.92-1.22,21.88-1.65,32.83-.38,9.58-.49,19.17-.79,28.76-.22,6.88-5.22,11.42-12.25,11.25-6.44-.16-11-4.94-11-11.65,0-4,0-8,.26-12q.89-13.59,2-27.17c1.41-16.86,3-33.7,4.33-50.56.9-11,1.84-22.08,2.29-33.14.54-13.07,1.26-26.15.82-39.24-.88-26.31-3.49-52.36-11-77.75a18,18,0,0,0-27.14-10c-6.58,4.2-11,10.39-15,16.9-7.33,11.91-13,24.68-19.35,37.11-7.5,14.73-16.31,28.63-27.29,40.95-14.89,16.7-34.26,26-55.75,30.6-13.18,2.84-18.11,9.77-19.4,23.63-.64,6.86.48,13.68,1.44,20.45A212,212,0,0,1,88,274c.12,15,8.64,23.14,21.12,28.7a61.48,61.48,0,0,0,20.9,5.16,9.35,9.35,0,0,1,6.6,3.06,472.57,472.57,0,0,1,37,47c14,20.14,27.3,40.79,42.71,59.95,5.26,6.55,11.81,8.07,19.32,6.37,11.07-2.51,18-10.62,19.41-21.86.56-4.43,3.13-6.95,6.85-6.71s6,3.12,6.08,7.56c.14,13.51-9.25,27-22.93,32.64-3.52,1.46-7.19,2.52-10.79,3.76Z"
        transform="translate(-58.85 -46.42)" fill="#cfcfcf" stroke="#cfcfcf" stroke-miterlimit="10"
        stroke-width="20" />
    <path
        d="M439.32,201.31c-.83,6.91-4,13-7.68,18.75-7.25,11.26-16.17,21.15-25.86,30.33-2.47,2.34-2.54,3.75-.1,6.25C414,265.1,421.9,273.88,430.5,282c4.33,4.11,8.95,7.91,13.28,12,3.19,3,3.25,7.19.5,10.8-2.58,3.4-6.66,4.66-9.82,2.61a22.93,22.93,0,0,1-5.07-4.91c-10.81-13.43-23.28-25.27-35.39-37.46-1.41-1.41-2.27-1.27-3.66,0-15.62,14.46-32.52,27.39-49.07,40.73-2.55,2.05-5.25,2.87-8.26,1.16-2.44-1.39-3.22-3.67-3-6.37a5.43,5.43,0,0,1,2.31-4.06c14-10.65,26.64-22.85,38.8-35.53,2.49-2.6,4.68-5.49,7.07-8.19,1-1.17,1-2-.17-3.09-9.61-9.6-19.69-18.69-29.73-27.82-5.61-5.11-11.49-9.92-17-15.09-4.93-4.59-4.59-11.52.46-16.11,4.84-4.39,11.72-4.15,16,.63q19.47,21.88,38.86,43.84c1.79,2,2.82,2.4,4.68,0,7.15-9.41,14.54-18.66,23.11-26.83,4.5-4.28,9.17-8.45,14.9-11.11,2-.94,4.08-1.71,6.44-1C438.33,196.92,440,198.22,439.32,201.31Z"
        transform="translate(-58.85 -46.42)" fill="#cfcfcf" stroke="#cfcfcf" stroke-miterlimit="10"
        stroke-width="20" />
</svg>