<svg id="Layer_1" data-name="Layer 1" xmlns="http://www.w3.org/2000/svg" viewBox="0 0 381.03 403.17"><path d="M195.18,415.58c-.48-.95-1.49-.85-2.28-1.06A31.08,31.08,0,0,1,177.53,405c-12.56-13.84-25.43-27.4-37.68-41.52a223.12,223.12,0,0,1-36.71-59.13,6,6,0,0,0-5.08-4.12c-13.57-2.37-26.19-7.1-36.71-16.34-9.4-8.26-15.41-18.41-15-31.24.43-14.14-2.17-28-2.74-42.06-.56-13.61.38-27,11.08-37.44,5.12-5,11.49-7.36,18.22-8.9,19.46-4.46,36.63-13.09,49.76-28.38a166,166,0,0,0,20.86-31.4c6.93-13.25,12.39-27.24,20.06-40.1,5.82-9.75,11.89-19.38,21.51-26,16-10.94,35.84-5.8,47.65,6.42,2.79,2.88,3.73,7,5.16,10.71,5.13,13.33,7.43,27.33,9.64,41.34,4.2,26.54,5.15,53.28,4.34,80.07q-1,32.1-3.35,64.14c-.82,10.92-1.22,21.88-1.65,32.83-.38,9.58-.49,19.17-.79,28.76-.22,6.88-5.22,11.42-12.25,11.25-6.44-.16-11-4.94-11-11.65,0-4,0-8,.26-12q.9-13.59,2-27.17c1.41-16.86,3-33.7,4.33-50.56.9-11,1.84-22.08,2.29-33.14.54-13.07,1.26-26.15.82-39.24-.88-26.31-3.49-52.36-11-77.75a18,18,0,0,0-27.14-10c-6.58,4.2-11,10.39-15,16.9-7.33,11.91-13,24.68-19.35,37.11-7.5,14.73-16.31,28.63-27.29,40.95-14.89,16.7-34.26,26-55.75,30.6-13.18,2.84-18.11,9.77-19.4,23.63-.64,6.86.48,13.68,1.44,20.45A212,212,0,0,1,61,250c.12,15,8.64,23.14,21.12,28.7a61.48,61.48,0,0,0,20.9,5.16,9.33,9.33,0,0,1,6.6,3.06,472.57,472.57,0,0,1,37,47c14,20.14,27.3,40.79,42.71,59.95,5.26,6.55,11.81,8.07,19.32,6.37,11.07-2.51,18-10.62,19.41-21.86.56-4.43,3.13-6.95,6.85-6.71s6,3.12,6.08,7.56c.14,13.51-9.25,27-22.93,32.64-3.52,1.46-7.19,2.52-10.79,3.76Z" transform="translate(-33.49 -22.42)" fill="#7fadfe" stroke="#7fadfe" stroke-miterlimit="10" stroke-width="20"/><path d="M388.4,232.71c-.55-26.09-8-49.69-25.33-69.72-3.36-3.89-4.17-8.16-1.69-12.77s6.33-6.94,11.58-6.74c3.94.15,6.64,2.36,8.78,5.54a132.43,132.43,0,0,1,21.69,58.22c3.16,25.14-.52,49.12-11.87,71.83a108.55,108.55,0,0,1-14.76,22c-3.65,4.25-9,4.63-12.81.94s-3.64-9.43.75-13c13.68-11.19,20.31-26.09,22.83-43.17A79.06,79.06,0,0,0,388.4,232.71Z" transform="translate(-33.49 -22.42)" fill="#41eecc" stroke="#41eecc" stroke-miterlimit="10" stroke-width="20"/><path d="M331.83,221.56c-.52,12.92-4.4,24.15-14.17,32.79-1.56,1.38-3.15,2.9-5.55,2.62-4.35-.51-6.12-5-3.49-9.08,5.14-8,6.18-16.65,3.8-25.76-1.15-4.43-3.63-8.12-6.6-11.56-3.31-3.83-4.28-8.18-1.71-12.76,2.66-4.74,6.77-7.15,12.33-6.78,4.2.27,6.78,2.89,8.77,6.18C329.77,204.75,331.59,213.08,331.83,221.56Z" transform="translate(-33.49 -22.42)" fill="#41eecc" stroke="#41eecc" stroke-miterlimit="10" stroke-width="20"/></svg>